<?xml version="1.0" encoding="UTF-8"?> <svg xmlns="http://www.w3.org/2000/svg" fill="none" viewBox="0 0 84 84"><path stroke="#191921" d="M17.44 1.3h-16v16M17.44 83.3h-16v-16M67.44 1.3h16v16M67.44 83.3h16v-16" opacity=".2"></path><path fill="#191921" d="M29.2 71.3v-7.6h-2.92v-1.04h7.1v1.04h-2.91v7.6H29.2Zm6.67.12c-.63 0-1.17-.14-1.64-.4a2.96 2.96 0 0 1-1.1-1.15 3.42 3.42 0 0 1-.4-1.65c0-.63.13-1.18.4-1.65.26-.47.63-.84 1.1-1.1.47-.27 1.02-.41 1.64-.41.63 0 1.18.14 1.66.4.47.27.83.64 1.09 1.11.26.47.4 1.02.4 1.65 0 .61-.14 1.16-.4 1.65-.26.48-.62.86-1.1 1.14-.47.27-1.02.41-1.65.41Zm0-1.02c.38 0 .7-.1.97-.28.28-.18.5-.44.66-.76.16-.33.24-.72.24-1.16 0-.65-.18-1.17-.53-1.54-.34-.39-.79-.58-1.34-.58-.54 0-1 .2-1.34.58-.35.38-.52.9-.52 1.54 0 .44.08.83.23 1.16a1.77 1.77 0 0 0 1.63 1.04Zm6.3 1.02c-.41 0-.77-.08-1.08-.25a1.92 1.92 0 0 1-.99-1.77v-4.22h1.25v3.94c0 .42.1.74.31.94.21.21.5.32.9.32a1.72 1.72 0 0 0 1.54-.9c.16-.3.24-.62.24-1l.15 1.46a2.47 2.47 0 0 1-2.32 1.48Zm2.22-.12v-1.44h-.05v-4.68h1.23v6.12H44.4Zm5.33.12c-.58 0-1.1-.14-1.56-.4a3.02 3.02 0 0 1-1.08-1.15 3.44 3.44 0 0 1-.38-1.64c0-.62.13-1.16.38-1.63a2.93 2.93 0 0 1 2.63-1.54c.49 0 .93.1 1.31.28a2.55 2.55 0 0 1 1.43 1.93h-1.18a1.47 1.47 0 0 0-1.53-1.19 1.63 1.63 0 0 0-1.54 1c-.14.33-.22.7-.22 1.15 0 .43.08.81.22 1.14.14.33.35.58.61.77.27.17.58.26.94.26.39 0 .72-.1 1-.31.27-.22.45-.5.53-.87h1.18a2.6 2.6 0 0 1-1.45 1.92c-.39.19-.81.28-1.29.28Zm3.86-.12v-8.64h1.24v8.64h-1.24Zm4.34 0v-3.94c0-.42-.1-.74-.32-.94-.21-.21-.52-.32-.94-.32a1.77 1.77 0 0 0-1.84 1.9l-.15-1.46c.2-.46.5-.82.92-1.08.42-.27.9-.4 1.45-.4.66 0 1.18.18 1.55.55.38.37.57.86.57 1.47v4.22h-1.24ZM22.44 32.43c0 2.92.37 5.02 1.2 6.8a.75.75 0 0 0 1.35-.62c-.44-.96-.73-2.04-.9-3.35a19.86 19.86 0 0 1-1.48-5.46c-.11.87-.17 1.75-.17 2.63Zm3.51 10.97a.75.75 0 1 0 1.47.3c.22-1.05.33-1.96.38-2.8a20.18 20.18 0 0 1-1.5-1.83 15.5 15.5 0 0 1-.35 4.33Zm29.15-.63a73.73 73.73 0 0 1-.28 3.96.75.75 0 1 0 1.49.15c.2-2 .3-3.84.35-5.52-.5.5-1.01.97-1.55 1.41Zm-26.75 3.17a.75.75 0 0 0 1.43.46c.36-1.1.62-2.1.81-3.01-.45-.34-.89-.69-1.31-1.06a27.84 27.84 0 0 1-.93 3.61Zm22.5 3.4a.75.75 0 0 0 1.43.42c.55-1.82.9-3.77 1.1-5.73-.53.35-1.08.67-1.64.96-.2 1.5-.48 2.97-.9 4.34Zm-4.08 1.59a.75.75 0 0 0 1.42.49 35.7 35.7 0 0 0 1.4-5.46c-.54.2-1.08.4-1.64.55-.3 1.53-.69 3-1.18 4.42ZM33.7 49.48a.75.75 0 1 0 1.36.64c.6-1.3 1.07-2.54 1.42-3.73-.48-.15-.95-.33-1.42-.52a23.95 23.95 0 0 1-1.36 3.61Zm2.93 1.13a.75.75 0 0 0 1.37.62 30.23 30.23 0 0 0 1.54-4.17c-.5-.07-1-.15-1.49-.26-.36 1.22-.82 2.5-1.42 3.81Zm6.73.66a.75.75 0 0 0 1.39.56 30.4 30.4 0 0 0 1.5-4.9c-.53.1-1.07.18-1.6.24-.3 1.24-.71 2.65-1.3 4.1Zm-1.8-2.43a.75.75 0 0 0-.95.47l-.67 2a.75.75 0 0 0 1.43.48l.66-2a.75.75 0 0 0-.47-.95Zm-8.58-4.9a.74.74 0 0 0-.84.47l-.05.1-.02.11c-.28 1.11-1.18 3.38-1.2 3.4a.75.75 0 0 0 1.4.56c.04-.1.87-2.18 1.2-3.42l.05-.18.04-.14a.75.75 0 0 0-.58-.9Zm27.04-5.04a.74.74 0 0 0-.78-.72h-.02a.75.75 0 0 0-.7.77v.2c.04.85.05 1.72.05 2.65a.75.75 0 0 0 1.5 0c0-1.02-.02-1.99-.05-2.9Z"></path><path fill="#191921" d="M62.26 29.85a20.19 20.19 0 0 0-.62-3.02c-.26.9-.57 1.77-.95 2.62.16.97.25 1.96.25 2.97v.13c0 .35.25.64.59.71.05.02.1.04.16.04.41 0 .75-.34.75-.75v-.13c0-.87-.08-1.72-.18-2.57Zm-38.08-.4c-.37-.84-.69-1.7-.94-2.6l-.06.12a20.1 20.1 0 0 0-.57 2.83c.24 1.92.74 3.75 1.48 5.46-.1-.84-.15-1.78-.15-2.84 0-1 .09-2 .24-2.98Zm34.09 5.79a.75.75 0 0 0 1.5-.14 57.67 57.67 0 0 0-.4-3.2c-.39.62-.8 1.23-1.27 1.8l.17 1.54Zm-30.75 1.27c-.1-.7-.18-1.42-.25-2.2a20.2 20.2 0 0 1-1.58-2.1v.21c0 1.69.17 3 .34 4.29.11.8.21 1.56.26 2.36.47.63.97 1.24 1.5 1.82.1-1.64-.08-2.99-.27-4.38Zm29-1.02c-.45.45-.93.88-1.42 1.28.09 1.72.1 3.72 0 6 .54-.44 1.06-.92 1.55-1.41.06-2.25 0-4.2-.13-5.87Zm-25.54 2.19c-.58-.41-1.13-.85-1.67-1.32.24 1.71.42 3.43-.04 5.97.43.37.87.72 1.32 1.06.52-2.4.53-4.17.4-5.71Zm22.6.23c-.48.32-.98.62-1.49.9a42.9 42.9 0 0 1-.35 6.18c.56-.3 1.1-.61 1.63-.96.22-2.1.27-4.2.21-6.12Zm-20.9 3.14c0 .41.34.75.76.75.41 0 .75-.34.75-.76l-.02-1.55c-.52-.23-1.03-.49-1.52-.76l.04 2.32Zm15.99-.76a39.41 39.41 0 0 1-.72 6.22c.56-.16 1.1-.35 1.63-.55.35-2 .55-4.07.6-6.22-.49.2-1 .39-1.51.55Zm-12.73-.1c-.05 1.72-.3 3.62-.89 5.68.47.19.94.37 1.42.52.61-2.08.88-4 .96-5.75-.5-.13-1-.28-1.49-.44Zm3.15.8c-.13 1.76-.43 3.71-1.05 5.8.49.12.99.2 1.49.27.6-2.11.92-4.08 1.05-5.86-.5-.04-1-.12-1.5-.2Zm7.02 1.3a.74.74 0 0 0-.8.71c0 .03-.11 1.77-.68 4.17.54-.06 1.07-.14 1.6-.24.47-2.2.57-3.74.58-3.84a.75.75 0 0 0-.7-.8Zm-3.9-1c-.1 1.49-.3 3.08-.63 4.73a.75.75 0 1 0 1.47.3c.36-1.78.57-3.5.67-5.09-.42.03-.85.07-1.28.07l-.23-.02Z"></path><path fill="#191921" d="M60.7 29.44c.37-.84.7-1.7.95-2.6-.3-1.05-.67-2.06-1.13-3.03-.28.58-.58 1.15-.9 1.7.49 1.26.86 2.57 1.08 3.93Zm-36.6-3a.74.74 0 0 0-.86.42c.26.89.58 1.75.95 2.58.1-.7.25-1.39.44-2.07a.75.75 0 0 0-.52-.92Zm34.3.88c-.36.48-.75.94-1.15 1.39.18.72.55 2.42.86 5 .46-.58.88-1.19 1.27-1.81a35.93 35.93 0 0 0-.77-3.93c-.06-.22-.14-.43-.21-.65Zm-30.75 1.4c-.41-.45-.8-.92-1.16-1.4-.5 1.56-.77 3.21-.8 4.9.49.73 1.02 1.43 1.59 2.1a21.6 21.6 0 0 1-.09-1.9c0-1.26.16-2.5.46-3.7Zm26.83 2.52c.25 1.29.5 3.14.63 5.53.49-.4.96-.83 1.42-1.28a39.78 39.78 0 0 0-.74-5.33c-.42.38-.85.74-1.3 1.08Zm-24.04 1.18c0-.38.03-.74.06-1.11-.47-.35-.92-.72-1.36-1.11-.12.72-.2 1.46-.2 2.22 0 1.31.16 2.43.32 3.52l.06.42c.53.47 1.09.9 1.67 1.31-.07-.67-.16-1.31-.25-1.95-.15-1.07-.3-2.1-.3-3.3Zm21.21.62c.24 1.54.42 3.55.45 5.77.5-.28 1-.58 1.49-.9a41 41 0 0 0-.55-5.67c-.45.28-.91.55-1.39.8Zm-17.93.23c-.52-.25-1.03-.53-1.53-.82 0 .95.08 1.64.18 2.44.1.91.22 2 .28 3.84.5.27 1 .52 1.52.76-.05-2.4-.2-3.7-.31-4.77-.06-.51-.11-.96-.14-1.45Zm16.47 4c-.03-1.36-.13-2.49-.24-3.44-.47.19-.96.37-1.45.53a37.9 37.9 0 0 1 .17 5.93c.52-.16 1.03-.34 1.52-.55.02-.81.03-1.63 0-2.47ZM37.13 34.7l-.01-.13c-.53-.15-1.05-.32-1.57-.5l.09.8c.17 1.47.37 3.26.3 5.33.5.17.99.32 1.5.45.1-2.33-.13-4.33-.3-5.95Zm3.33.5c-.52-.05-1.03-.13-1.53-.22.17 1.56.33 3.6.16 6.02.5.09.99.17 1.5.21.17-2.37.03-4.41-.13-6Zm5.1 3.98c.01.42.35.75.76.75.42 0 .75-.34.75-.75 0-1.4-.13-2.97-.3-4.36-.48.11-.98.19-1.48.26.16 1.26.27 2.71.28 4.1Zm-1.9-3.94c-.4.03-.8.07-1.22.07l-.28-.02c.13 1.53.21 3.62.06 6l.22.02c.44 0 .86-.04 1.29-.07.15-2.37.07-4.45-.06-6Z"></path><path fill="#191921" fill-opacity=".5" d="M57.42 21.51a18.65 18.65 0 0 1 2.19 4c.33-.54.63-1.11.9-1.7-.58-1.24-1.3-2.4-2.11-3.5-.31.42-.63.82-.98 1.2Zm-32.86 1.9-.03.05c-.19.37 0 .76.36.95.1.04.2.06.3.06.3 0 .6-.18.74-.46.44-.88.96-1.71 1.52-2.5-.34-.38-.66-.78-.97-1.2-.72.97-1.37 2-1.92 3.1Zm30.5.4a15.37 15.37 0 0 1 2.18 4.9c.4-.44.8-.9 1.16-1.39a16.8 16.8 0 0 0-2.21-4.52c-.36.34-.73.68-1.12 1Zm-25.24 0a20.2 20.2 0 0 1-1.13-1.01 17.03 17.03 0 0 0-2.2 4.52c.36.48.75.95 1.15 1.4a15.5 15.5 0 0 1 2.18-4.91Zm23.84 1.05c-.42.28-.85.53-1.29.78a12.37 12.37 0 0 1 1.7 3.8c.1.36.25.97.41 1.8.45-.34.89-.7 1.31-1.08-.1-.5-.2-.9-.28-1.17a13.61 13.61 0 0 0-1.85-4.13Zm-22.44 0a13.63 13.63 0 0 0-2.09 5.34c.44.4.9.76 1.36 1.11.2-2.09.9-4.02 2.01-5.67-.43-.25-.87-.5-1.28-.78Zm21.14 4.7a.75.75 0 1 0-1.42.48 15.74 15.74 0 0 1 .7 3c.48-.24.94-.52 1.4-.8l-.12-.6a17.2 17.2 0 0 0-.56-2.08ZM35.5 27.04c-.48-.18-.96-.38-1.43-.6a10.4 10.4 0 0 0-1.88 5.98v.03c.5.3 1 .57 1.53.82a8.9 8.9 0 0 1 1.79-6.24Zm12.17.54c-.59.16-1.19.3-1.8.4.92.7 1.64 1.68 1.98 2.81.09.27.42 1.45.65 3.57.49-.16.97-.34 1.45-.53-.23-1.95-.54-3.1-.67-3.5a6.93 6.93 0 0 0-1.6-2.75Zm-5.23.97a3.82 3.82 0 0 0-3.75 3.87c0 .45.07 1.04.15 1.79l.09.76c.5.1 1 .18 1.53.23l-.13-1.16c-.08-.7-.14-1.25-.14-1.62 0-1.3 1-2.37 2.25-2.37 1.02 0 1.63.44 2.2 1.58.16.31.44 1.7.65 3.44.5-.07 1-.15 1.48-.26-.22-1.8-.52-3.33-.78-3.85-.52-1.03-1.45-2.41-3.55-2.41Z"></path><path fill="#191921" fill-opacity=".5" d="M42.42 31.81a.75.75 0 0 0-.6.88c.01.03.2 1 .33 2.6h.29c.41 0 .81-.03 1.22-.05a29 29 0 0 0-.36-2.84.75.75 0 0 0-.88-.59Zm-4.38-3.97a1.08 1.08 0 0 0-.42-.15.74.74 0 0 0-.64.27 7.23 7.23 0 0 0-1.54 4.46c0 .48.05 1.04.11 1.64a20 20 0 0 0 1.56.5 21.1 21.1 0 0 1-.17-2.14c0-1.3.42-2.52 1.22-3.53.26-.33.2-.8-.12-1.05Z"></path><path fill="#191921" fill-opacity=".3" d="M57.43 21.51c.34-.39.66-.78.97-1.2-.97-1.3-2.09-2.47-3.35-3.5-.4.33-.81.64-1.24.93a18.57 18.57 0 0 1 3.62 3.77Zm-26.36-3.77c-.43-.3-.84-.6-1.24-.93a20.12 20.12 0 0 0-3.35 3.5c.31.42.64.82.98 1.2a18.46 18.46 0 0 1 3.6-3.77Zm24 6.06c.39-.32.76-.66 1.12-1a16.87 16.87 0 0 0-3.98-4.06c-.49.27-1 .52-1.52.76a15.38 15.38 0 0 1 4.38 4.3Zm-5.48-2.94a.75.75 0 1 0-.8 1.27c1.45.91 2.65 2.11 3.59 3.51.43-.25.86-.5 1.28-.78a13.53 13.53 0 0 0-4.07-4Zm-18.37 4c.42.27.85.53 1.28.78a12.06 12.06 0 0 1 6.15-4.71 20 20 0 0 1-2.38-.61 13.62 13.62 0 0 0-5.05 4.53Zm19.24 1.1a10.16 10.16 0 0 0-16.38.49c.46.21.94.4 1.42.59a8.7 8.7 0 0 1 13.78-.15c.04.05.1.09.15.13.27.19.63.2.9 0a.74.74 0 0 0 .28-.48c.03-.2-.01-.41-.15-.58Z"></path><path fill="#191921" d="M42.44 25.3c-.77 0-1.52.12-2.24.37l-.14.05a.75.75 0 1 0 .51 1.4l.11-.03c.57-.2 1.16-.3 1.76-.3a5.7 5.7 0 0 1 3.43 1.2c.62-.11 1.22-.25 1.8-.41a7.2 7.2 0 0 0-5.23-2.28Zm-8.69-6.44a.75.75 0 0 0-1.04-.17l-.06.04a16.8 16.8 0 0 0-3.95 4.07c.36.34.73.68 1.12 1 1-1.5 2.27-2.82 3.76-3.9a.74.74 0 0 0 .3-.55.75.75 0 0 0-.13-.5ZM45.2 13.23c-.08.4.2.8.6.88 3 .55 5.72 1.84 8 3.63.43-.3.85-.6 1.25-.93a19.83 19.83 0 0 0-8.98-4.18c-.4-.08-.8.2-.87.6Zm-3 .57a.75.75 0 0 0-.02-1.5c-4.6.06-8.92 1.69-12.36 4.51.4.33.82.63 1.24.93 3.13-2.46 7-3.89 11.13-3.94Zm.23 1.75c-2.12 0-4.2.4-6.16 1.17a.75.75 0 0 0 .56 1.4 15.05 15.05 0 0 1 13.86 1.38c.52-.24 1.02-.49 1.52-.76a16.64 16.64 0 0 0-9.78-3.2Z"></path><path fill="#191921" d="M42.44 20.3c1.04 0 2.07.13 3.06.4.4.1.81-.14.92-.54a.75.75 0 0 0-.54-.92 13.4 13.4 0 0 0-9.6 1.08c.77.25 1.56.45 2.37.6 1.2-.4 2.47-.62 3.8-.62Z"></path></svg> 