<?xml version="1.0" encoding="UTF-8"?> <svg xmlns="http://www.w3.org/2000/svg" fill="none" viewBox="0 0 84 84"><path stroke="#191921" d="M17.44 1.3h-16v16M17.44 83.3h-16v-16M67.44 1.3h16v16M67.44 83.3h16v-16" opacity=".2"></path><rect width="31" height="57.87" x="26.95" y="13.07" stroke="#191921" stroke-width="2" rx="6.2"></rect><path fill="#191921" d="M34.76 54.4c.15 0 .28.12.28.27v1.15l.75-.74c.11-.1.29-.1.4 0 .1.1.1.28 0 .38l-.76.74h1.18c.16 0 .28.12.28.27 0 .15-.12.27-.28.27h-1.34l.92.88c.1.11.1.28 0 .39-.11.1-.29.1-.4 0l-.75-.74v1c0 .14-.13.26-.28.26a.27.27 0 0 1-.28-.27v-1.14l-.92.89c-.1.1-.28.1-.39 0a.26.26 0 0 1 0-.39l.92-.88H32.9a.27.27 0 0 1-.27-.27c0-.15.12-.27.27-.27h1.03l-.76-.74a.26.26 0 0 1 0-.38c.1-.1.29-.1.4 0l.91.9v-1.31c0-.15.13-.27.28-.27ZM39.88 54.4c.15 0 .28.12.28.27v1.15l.76-.74c.1-.1.28-.1.39 0 .1.1.1.28 0 .38l-.76.74h1.19c.15 0 .27.12.27.27 0 .15-.12.27-.27.27h-1.35l.92.88c.1.11.1.28 0 .39-.1.1-.28.1-.4 0l-.75-.74v1c0 .14-.13.26-.28.26a.27.27 0 0 1-.28-.27v-1.14l-.91.89c-.11.1-.29.1-.4 0a.26.26 0 0 1 0-.39l.92-.88h-1.18a.27.27 0 0 1-.28-.27c0-.15.12-.27.28-.27h1.02l-.76-.74a.26.26 0 0 1 0-.38c.11-.1.29-.1.4 0l.91.9v-1.31c0-.15.13-.27.28-.27ZM45.28 54.67a.27.27 0 0 0-.28-.27.27.27 0 0 0-.28.27v1.3l-.91-.89a.28.28 0 0 0-.4 0c-.1.1-.1.28 0 .38l.76.74h-1.02a.27.27 0 0 0-.28.27c0 .15.12.27.28.27h1.18l-.92.88c-.1.11-.1.28 0 .39.11.1.29.1.4 0l.91-.9v1.15c0 .15.13.27.28.27.16 0 .28-.12.28-.27v-.99l.76.74c.1.1.28.1.4 0 .1-.11.1-.28 0-.39l-.92-.88h1.34c.15 0 .28-.12.28-.27a.27.27 0 0 0-.28-.27h-1.19l.76-.74c.11-.1.11-.27 0-.38a.28.28 0 0 0-.4 0l-.75.74v-1.15ZM50.12 54.4c.16 0 .28.12.28.27v1.15l.76-.74c.1-.1.29-.1.4 0 .1.1.1.28 0 .38l-.76.74h1.18c.15 0 .28.12.28.27 0 .15-.13.27-.28.27h-1.34l.91.88c.11.11.11.28 0 .39-.1.1-.28.1-.39 0l-.76-.74v1c0 .14-.12.26-.28.26a.27.27 0 0 1-.27-.27v-1.14l-.92.89c-.1.1-.29.1-.4 0a.26.26 0 0 1 0-.39l.92-.88h-1.18a.27.27 0 0 1-.28-.27c0-.15.12-.27.28-.27h1.02l-.75-.74a.26.26 0 0 1 0-.38c.1-.1.28-.1.39 0l.92.9v-1.31c0-.15.12-.27.27-.27ZM41.95 38.92a.75.75 0 1 1 1.5 0 .75.75 0 0 1-1.5 0Z"></path><path fill="#191921" fill-rule="evenodd" d="M42.7 30.63a3.47 3.47 0 0 0-3.47 3.47v.67c0 .04 0 .08.02.12a3.01 3.01 0 0 0-1.83 1.9c-.15.45-.15 1-.15 2.13 0 1.12 0 1.68.15 2.14.3.92 1.02 1.63 1.94 1.93.45.15 1.01.15 2.13.15h2.41c1.13 0 1.69 0 2.14-.15a3.01 3.01 0 0 0 1.94-1.93c.14-.46.14-1.02.14-2.14s0-1.68-.14-2.14a3.01 3.01 0 0 0-1.83-1.9.46.46 0 0 0 .01-.11v-.67a3.47 3.47 0 0 0-3.46-3.47Zm1.2 4.07a25 25 0 0 1 1.36.02v-.62a2.56 2.56 0 1 0-5.12 0v.62c.34-.02.77-.02 1.35-.02h2.41Zm-2.86 4.22a1.66 1.66 0 1 1 3.32 0 1.66 1.66 0 0 1-3.32 0Z" clip-rule="evenodd"></path><path stroke="#191921" stroke-linecap="round" stroke-width="2" d="M40.38 18.23h4.13M26.24 34.95v-2.11M26.24 30.02v-2.11M58.65 33.55V27.2"></path></svg> 