<?xml version="1.0" encoding="UTF-8"?> <svg xmlns="http://www.w3.org/2000/svg" fill="none" viewBox="0 0 84 84"><path stroke="#191921" d="M17.44 1.3h-16v16M17.44 83.3h-16v-16M67.44 1.3h16v16M67.44 83.3h16v-16" opacity=".2"></path><path fill="#191921" d="M30.97 21.06a.6.6 0 0 0 .08.84.58.58 0 0 0 .83-.08 33.5 33.5 0 0 1 9-7.7c.43-.25.87-.48 1.32-.7a.6.6 0 0 0 .28-.78.59.59 0 0 0-.78-.29c-.48.23-.95.48-1.4.74a34.7 34.7 0 0 0-9.33 7.97ZM25.65 26.4c-.1 0-.19-.01-.28-.06a.6.6 0 0 1-.23-.8 37.47 37.47 0 0 1 10.1-11.88c.26-.2.63-.15.82.1a.6.6 0 0 1-.1.84 36.28 36.28 0 0 0-9.79 11.5c-.1.2-.3.3-.52.3ZM23 26.4a.6.6 0 0 1-.53-.86c.45-.9.95-1.8 1.47-2.66a.59.59 0 0 1 .8-.2.6.6 0 0 1 .2.81c-.5.84-.98 1.72-1.42 2.6-.1.2-.31.32-.53.32ZM65.3 42.34a.6.6 0 0 0-.06-.84.59.59 0 0 0-.83.06c-.77.88-1.62 1.7-2.53 2.45a1.52 1.52 0 0 0-.48 1.64l.42 1.33a.59.59 0 1 0 1.13-.34l-.43-1.36a.33.33 0 0 1 .1-.35c.96-.79 1.86-1.66 2.67-2.59ZM64.45 44.9c.24-.23.61-.21.83.03a.6.6 0 0 1-.03.84l-.08.07.24.8a.6.6 0 0 1-.56.76.59.59 0 0 1-.57-.42c-.11-.4-.23-.78-.35-1.15a.6.6 0 0 1 .17-.62l.35-.31ZM63.63 49a39.53 39.53 0 0 1 1.16 6.1.6.6 0 0 1-.59.67.59.59 0 0 1-.58-.53 39.89 39.89 0 0 0-1.13-5.94.59.59 0 1 1 1.14-.3Z"></path><path fill="#191921" d="M59.76 44.4a.33.33 0 0 1 .12-.38 19.26 19.26 0 0 0 5.47-5.7.6.6 0 0 0-.19-.82.59.59 0 0 0-.81.19 18.1 18.1 0 0 1-5.13 5.36 1.5 1.5 0 0 0-.59 1.7l.26.81c1.34 4.09 2.83 9.5 2.52 15.09a.6.6 0 0 0 .56.62H62c.31 0 .57-.24.59-.55.32-5.8-1.21-11.34-2.58-15.53l-.26-.8ZM21.3 39.32h.1c.28 0 .53-.2.57-.5a37.75 37.75 0 0 1 3.36-11.07.59.59 0 1 0-1.06-.52 38.98 38.98 0 0 0-3.46 11.42.6.6 0 0 0 .5.67ZM23.35 56.3a.59.59 0 0 1-.74-.38c-1.35-4.25-2.54-8.99-2.07-14.85a.6.6 0 0 1 .64-.54.6.6 0 0 1 .53.64c-.45 5.65.71 10.25 2.03 14.38a.6.6 0 0 1-.39.74ZM58.45 50.16a.6.6 0 0 0-.43.72c1.22 4.87 1.4 9.27.54 13.44a.6.6 0 0 0 .58.71c.28 0 .52-.19.58-.47.89-4.36.7-8.92-.56-13.97a.59.59 0 0 0-.71-.43Z"></path><path fill="#191921" d="M56.44 42.1c.14-.15.29-.28.45-.38a15.88 15.88 0 0 0 7.28-9.4.59.59 0 1 1 1.13.33c-1.21 4.27-3.99 7.86-7.81 10.1a.68.68 0 0 0-.16.13c-.23.26-.3.66-.19 1.04a77.48 77.48 0 0 0 1.05 3.29.6.6 0 0 1-.56.77.59.59 0 0 1-.56-.41l-.41-1.27a78.8 78.8 0 0 1-.65-2.05 2.3 2.3 0 0 1 .43-2.15ZM26.24 30.61a.6.6 0 0 1-.54-.82 36.04 36.04 0 0 1 4.1-7.21c.2-.27.56-.32.82-.13.27.2.32.57.13.83a34.84 34.84 0 0 0-3.97 6.98.59.59 0 0 1-.54.35ZM24.76 32.24a36.9 36.9 0 0 0-1.87 9.02c-.43 5.4.7 9.91 1.87 13.62a.59.59 0 1 0 1.12-.36c-1.19-3.77-2.23-7.98-1.82-13.16a35.7 35.7 0 0 1 1.8-8.73.59.59 0 1 0-1.11-.39ZM25.38 57.2a.6.6 0 0 1-.22.8c-.24.14-.5.3-.79.45l-.9.54c-.1.06-.2.1-.32.1-.2 0-.38-.1-.5-.28a.6.6 0 0 1 .18-.81l.97-.59.77-.43a.59.59 0 0 1 .8.21ZM55.68 49.04a.6.6 0 0 0-.4.74c1.23 4.25 2.56 10.7-.05 17.63a.6.6 0 0 0 .55.8c.23 0 .46-.14.55-.38 2.74-7.27 1.35-13.97.08-18.38a.59.59 0 0 0-.73-.4Z"></path><path fill="#191921" d="M54.47 40.8c.35-.47.76-.84 1.24-1.12a13.5 13.5 0 0 0 6.27-8.29c.5-1.91.6-3.85.26-5.78a.59.59 0 1 1 1.16-.2c.36 2.1.27 4.2-.28 6.29-1 3.81-3.42 7.01-6.82 9-.34.2-.64.47-.9.81a3.54 3.54 0 0 0-.5 3.14l.64 2.02a.6.6 0 0 1-.56.78.59.59 0 0 1-.56-.4l-.65-2.07a4.73 4.73 0 0 1 .7-4.19ZM26.4 34.9a.6.6 0 0 0 .56.75c.26 0 .5-.17.57-.43a31.8 31.8 0 0 1 14.54-19.06 13.5 13.5 0 0 1 6.82-1.85.59.59 0 0 0 0-1.18c-2.6 0-5.17.7-7.41 2.01A32.98 32.98 0 0 0 26.4 34.9ZM27.95 55.79l.18-.06-.56.18.38-.12Z"></path><path fill="#191921" d="m28.69 55.54-.74.25-.38.12c-1.25-3.82-2.8-8.57-2.33-14.46.09-1.19.25-2.38.46-3.55a.59.59 0 1 1 1.16.21c-.2 1.13-.36 2.29-.45 3.44-.45 5.65 1.06 10.28 2.28 14ZM27.54 58.63a.6.6 0 0 1-.2.82c-.54.34-1.16.7-1.82 1.07-.34.18-.67.39-.99.6a.58.58 0 0 1-.81-.16.6.6 0 0 1 .16-.82c.34-.24.7-.46 1.06-.66.65-.36 1.26-.71 1.79-1.04a.59.59 0 0 1 .8.2ZM53.3 47.41c-.17-.53-.43-1.33-.65-2.07a5.98 5.98 0 0 1 .8-5.16 5.42 5.42 0 0 1 1.66-1.52 12.31 12.31 0 0 0 4.96-5.42.6.6 0 0 0-.29-.78.59.59 0 0 0-.78.28 11.13 11.13 0 0 1-4.48 4.9 6.59 6.59 0 0 0-2.02 1.85 7.17 7.17 0 0 0-.98 6.2c.22.75.49 1.56.66 2.09 1.44 4.4 3.85 11.78.51 19.61-.29.7-.62 1.37-.97 2.02a.6.6 0 0 0 .52.88c.2 0 .4-.11.52-.31.37-.69.71-1.4 1.02-2.12 3.5-8.24 1.01-15.88-.48-20.45ZM59.7 30.79l.08-.32c.66-2.8.22-5.72-1.23-8.21a.6.6 0 0 1 .22-.8.59.59 0 0 1 .8.2 12.42 12.42 0 0 1 1.28 9.43.59.59 0 1 1-1.14-.3ZM42.66 17.18a29.96 29.96 0 0 0-6.2 4.83.6.6 0 0 0 .42 1.01c.15 0 .3-.06.42-.17a28.85 28.85 0 0 1 5.96-4.64 11.16 11.16 0 0 1 13.91 2.16c.22.24.6.26.84.04a.6.6 0 0 0 .04-.84 12.39 12.39 0 0 0-15.39-2.39Z"></path><path fill="#191921" d="M30.78 59.96a36.6 36.6 0 0 1-4.12 2.63c-.3.16-.58.33-.85.52a.59.59 0 0 1-.82-.16.6.6 0 0 1 .16-.82c.3-.2.62-.4.94-.58a35.54 35.54 0 0 0 3.97-2.52c.45-.36.64-.96.48-1.52-.24-.84-.55-1.77-.73-2.33-1.19-3.62-2.66-8.12-2.23-13.54a31.44 31.44 0 0 1 7.13-17.69c.2-.25.58-.28.83-.07.25.2.28.58.07.83a30.26 30.26 0 0 0-6.85 17.02c-.42 5.18 1.01 9.55 2.16 13.07.2.58.5 1.53.75 2.38a2.6 2.6 0 0 1-.89 2.78ZM52.56 60.7a.59.59 0 0 0-.65.51c-.2 1.81-.67 3.57-1.38 5.25a21.63 21.63 0 0 1-2.12 3.84.6.6 0 0 0 .48.93c.18 0 .37-.08.48-.25a22.84 22.84 0 0 0 2.24-4.05 19.93 19.93 0 0 0 1.47-5.58.6.6 0 0 0-.52-.66ZM54.14 35.8a.6.6 0 0 1-.21.81 8.6 8.6 0 0 0-4.04 6.82c-.07.9.62 3.02 1.17 4.72.83 2.53 1.86 5.68 2.1 9.3a.6.6 0 0 1-.55.63h-.04a.59.59 0 0 1-.58-.55c-.24-3.47-1.24-6.54-2.04-9-.66-2-1.33-4.05-1.24-5.2.27-3.3 2-6.2 4.63-7.74a.59.59 0 0 1 .8.21Z"></path><path fill="#191921" d="M56.03 34.13a.58.58 0 0 0 .83-.11c.8-1.05 1.37-2.24 1.7-3.53a10.04 10.04 0 0 0-14.71-11.26 28.06 28.06 0 0 0-10.26 10.5.6.6 0 0 0 .23.8c.28.17.64.07.8-.22a26.88 26.88 0 0 1 9.82-10.06 8.8 8.8 0 0 1 12.08 3.2 8.86 8.86 0 0 1-.6 9.85.6.6 0 0 0 .11.83ZM33.16 54.06c1.03 3.16 1.44 4.69 1.13 5.41-.78 1.82-3.88 3.73-6.49 5.19l-.52.3a.59.59 0 0 1-.81-.17.6.6 0 0 1 .18-.82l.58-.35c1.31-.73 5.26-2.93 5.98-4.61.15-.54-.73-3.25-1.16-4.56v-.02c-1.12-3.41-2.51-7.66-2.12-12.6a29.56 29.56 0 0 1 2.42-9.6c.13-.3.47-.44.77-.3.3.13.43.48.3.78a28.37 28.37 0 0 0-2.31 9.21c-.38 4.7.97 8.82 2.05 12.13v.01ZM48.82 48.89c-.71-2.2-1.39-4.27-1.28-5.65.11-1.4.46-2.76 1.04-4.01a.6.6 0 0 0-.29-.79.59.59 0 0 0-.78.3 12.96 12.96 0 0 0-1.14 4.41c-.13 1.62.58 3.8 1.34 6.1 1.39 4.26 3.3 10.09.65 16.28-.9 2.1-2.14 4-3.8 5.77a.6.6 0 0 0 .43 1c.15 0 .31-.06.43-.19A20.72 20.72 0 0 0 49.45 66c2.8-6.6.82-12.67-.63-17.1Z"></path><path fill="#191921" d="M55.5 24.05a7.68 7.68 0 0 1 .79 5.83 7.64 7.64 0 0 1-3.55 4.69c-.95.55-1.8 1.27-2.54 2.13a.59.59 0 0 1-.83.06.6.6 0 0 1-.06-.84c.82-.95 1.78-1.75 2.84-2.38a6.5 6.5 0 0 0-6.52-11.25.59.59 0 0 1-.8-.2.6.6 0 0 1 .2-.81 7.63 7.63 0 0 1 10.47 2.77ZM42.68 24.34a.6.6 0 0 0 .09-.83.59.59 0 0 0-.83-.1 26.66 26.66 0 0 0-9.66 18.6c-.06.79-.08 1.6-.04 2.4.01.32.27.57.59.57h.02c.33-.02.58-.3.56-.62-.03-.76-.02-1.52.04-2.25a25.47 25.47 0 0 1 9.23-17.77ZM35.4 53.32c.99 3.03 1.77 5.41 1.05 7.09-1.04 2.46-4.38 4.57-7.5 6.32a.59.59 0 0 1-.8-.23.6.6 0 0 1 .22-.8c2.95-1.65 6.1-3.63 7-5.76.54-1.26-.18-3.46-1.09-6.25v-.02a45.84 45.84 0 0 1-1.68-6.12.59.59 0 1 1 1.16-.21 44.8 44.8 0 0 0 1.64 5.98ZM46.59 49.63c-.5-1.52-.97-2.96-1.22-4.29a.59.59 0 1 0-1.16.23c.27 1.4.75 2.87 1.26 4.43 1.34 4.1 3.02 9.23.73 14.6a18.28 18.28 0 0 1-4.95 6.61.6.6 0 0 0 .39 1.04c.13 0 .27-.05.38-.15a19.44 19.44 0 0 0 5.26-7.04c2.46-5.78.71-11.13-.7-15.43Z"></path><path fill="#191921" d="M45.2 43.05a.59.59 0 0 1-.6.55h-.04a.59.59 0 0 1-.54-.64 14.5 14.5 0 0 1 6.94-11.46 4.13 4.13 0 0 0-4.15-7.16c-.98.58-1.93 1.24-2.82 1.98a.59.59 0 0 1-.83-.09.6.6 0 0 1 .08-.83c.94-.77 1.94-1.47 2.98-2.08a5.28 5.28 0 0 1 7.25 1.92 5.3 5.3 0 0 1-1.91 7.28c-3.63 2.13-6.01 6.06-6.37 10.53ZM36.73 62.27a.6.6 0 0 0 .48.94c.18 0 .36-.09.47-.24.4-.54.7-1.08.94-1.63 1.06-2.5.16-5.26-.98-8.76-1-3.06-2.14-6.53-1.84-10.28.4-5.07 2.44-9.9 5.73-13.6a.6.6 0 0 0-.05-.84.59.59 0 0 0-.83.04 24.58 24.58 0 0 0-6.02 14.3c-.32 4 .85 7.59 1.89 10.75 1.06 3.26 1.9 5.84 1.02 7.92-.2.47-.47.94-.8 1.4ZM35.48 63.68c.23-.22.6-.22.83.02a.6.6 0 0 1-.02.84 27.03 27.03 0 0 1-5.31 3.75.59.59 0 0 1-.8-.22.6.6 0 0 1 .21-.8 25.96 25.96 0 0 0 5.09-3.59ZM45.12 64.13c1.7-4 .97-7.88.15-10.82a.59.59 0 1 0-1.14.32c.82 2.92 1.45 6.4-.1 10.03-1.1 2.6-3.04 4.9-5.94 7.06a.6.6 0 0 0 .35 1.07c.12 0 .24-.04.35-.12 3.07-2.29 5.14-4.75 6.33-7.54Z"></path><path fill="#191921" d="m44.35 50.36-1.12.38c-.9-2.78-1.76-5.4-1.56-7.97a16.87 16.87 0 0 1 8.1-13.32A1.77 1.77 0 1 0 48 26.38a20.3 20.3 0 0 0-9.26 12.55.59.59 0 1 1-1.14-.29c1.42-5.61 5-10.45 9.82-13.28a2.94 2.94 0 0 1 4.33 3.31c-.2.77-.69 1.4-1.37 1.8a15.69 15.69 0 0 0-7.53 12.4c-.18 2.32.64 4.83 1.5 7.5ZM40.86 59.21h.01a.59.59 0 0 0 .57-.61c-.06-2.15-.79-4.38-1.56-6.75-.98-3-2-6.08-1.73-9.36a.6.6 0 0 0-.54-.64.6.6 0 0 0-.63.54c-.28 3.52.76 6.72 1.78 9.82.74 2.29 1.45 4.45 1.5 6.42.02.32.28.58.6.58ZM40.47 61.5c.3.12.44.47.31.77-1.45 3.4-4.78 5.75-7.51 7.42a.59.59 0 0 1-.81-.2.6.6 0 0 1 .2-.82c3.84-2.33 6.01-4.45 7.04-6.87.13-.3.48-.44.77-.3Z"></path><path fill="#191921" d="M39.91 43.22c.3 0 .56-.23.59-.54a18.06 18.06 0 0 1 8.69-14.25.6.6 0 0 0 .2-.8.59.59 0 0 0-.8-.22 19.24 19.24 0 0 0-9.27 15.17.6.6 0 0 0 .59.64ZM42.11 51.1c1.28 3.92 2.6 7.96.84 12.1-1.2 2.81-3.45 5.24-7.08 7.64a.58.58 0 0 1-.82-.17.6.6 0 0 1 .17-.82c3.43-2.27 5.54-4.53 6.65-7.12 1.58-3.72.39-7.38-.88-11.25-.54-1.67-1.1-3.38-1.42-5.1a.59.59 0 1 1 1.16-.22c.3 1.64.85 3.32 1.38 4.95Z"></path><path fill="url(#paint0_linear_1909_2202)" d="M.44 42.3h83v41h-83z" opacity=".1"></path><path stroke="#191921" stroke-width="2" d="M.44 42.3h83"></path><defs><linearGradient id="paint0_linear_1909_2202" x1="41.94" x2="41.94" y1="42.3" y2="83.3" gradientUnits="userSpaceOnUse"><stop stop-color="#191921"></stop><stop offset="1" stop-color="#191921" stop-opacity="0"></stop></linearGradient></defs></svg> 