<?xml version="1.0" encoding="UTF-8"?> <svg xmlns="http://www.w3.org/2000/svg" fill="none" viewBox="0 0 84 84"><path stroke="#191921" d="M17.44 1.3h-16v16M17.44 83.3h-16v-16M67.44 1.3h16v16M67.44 83.3h16v-16" opacity=".2"></path><path fill="#191921" d="M33.04 71.3v-7.6h-2.92v-1.04h7.1v1.04h-2.9v7.6h-1.28Zm5.34 0v-8.64h3.66c.63 0 1.16.1 1.6.31.44.21.77.5 1 .89.25.38.37.84.37 1.37 0 .53-.12 1-.36 1.39-.24.38-.58.68-1.02.9-.44.22-.97.32-1.59.32h-2.69V66.8h2.63c.57 0 1-.14 1.3-.41.3-.27.45-.65.45-1.14 0-.5-.14-.88-.44-1.14-.3-.26-.73-.4-1.3-.4h-2.34v7.6h-1.27Zm7.82 0v-8.64h1.96l2.88 8.33h-.64l2.85-8.33h2v8.64h-1.27v-8.12h.2l-2.79 8.12h-1.41l-2.79-8.05h.2v8.05h-1.2Z"></path><g clip-path="url(#clip0_1909_2272)"><rect width="38.6" height="20.32" x="23.46" y="22.16" stroke="#191921" stroke-width="1.52" rx="2.03"></rect><path fill="#191921" d="M44.69 34.96v-5.7h1.2l1.83 4.49 1.79-4.48h1.18v5.69h-.9v-4.19l-1.7 4.19h-.8l-1.7-4.19v4.19h-.9ZM39.76 34.96v-5.7H42c1.19 0 1.97.72 1.97 1.82S43.19 32.9 42 32.9h-1.3v2.07h-.94Zm2.17-4.88h-1.24v2h1.23c.67 0 1.1-.39 1.1-1 0-.62-.43-1-1.1-1ZM34.63 30.1v-.83h4.45v.83h-1.76v4.86h-.93V30.1h-1.76Z"></path><path stroke="#191921" stroke-width="1.52" d="M26 13.02v6.1"></path><path fill="#191921" d="M27.52 13.52a1.52 1.52 0 1 1-3.04 0 1.52 1.52 0 0 1 3.04 0Z"></path><path stroke="#191921" stroke-width="1.52" d="M30.79 13.02v6.1"></path><path fill="#191921" d="M32.31 13.52a1.52 1.52 0 1 1-3.04 0 1.52 1.52 0 0 1 3.04 0Z"></path><path stroke="#191921" stroke-width="1.52" d="M35.57 13.02v6.1"></path><path fill="#191921" d="M37.1 13.52a1.52 1.52 0 1 1-3.05 0 1.52 1.52 0 0 1 3.05 0Z"></path><path stroke="#191921" stroke-width="1.52" d="M40.36 13.02v6.1"></path><path fill="#191921" d="M41.9 13.52a1.52 1.52 0 1 1-3.06 0 1.52 1.52 0 0 1 3.05 0Z"></path><path stroke="#191921" stroke-width="1.52" d="M45.15 13.02v6.1"></path><path fill="#191921" d="M46.68 13.52a1.52 1.52 0 1 1-3.05 0 1.52 1.52 0 0 1 3.05 0Z"></path><path stroke="#191921" stroke-width="1.52" d="M49.94 13.02v6.1"></path><path fill="#191921" d="M51.47 13.52a1.52 1.52 0 1 1-3.05 0 1.52 1.52 0 0 1 3.05 0Z"></path><path stroke="#191921" stroke-width="1.52" d="M54.73 13.02v6.1"></path><path fill="#191921" d="M56.26 13.52a1.52 1.52 0 1 1-3.05 0 1.52 1.52 0 0 1 3.05 0Z"></path><path stroke="#191921" stroke-width="1.52" d="M59.52 13.02v6.1"></path><path fill="#191921" d="M61.05 13.52a1.52 1.52 0 1 1-3.05 0 1.52 1.52 0 0 1 3.05 0ZM28.54 26.22a1.02 1.02 0 1 1-2.03 0 1.02 1.02 0 0 1 2.03 0ZM59.02 26.22a1.02 1.02 0 1 1-2.04 0 1.02 1.02 0 0 1 2.04 0ZM28.54 38.41a1.02 1.02 0 1 1-2.03 0 1.02 1.02 0 0 1 2.03 0ZM59.02 38.41a1.02 1.02 0 1 1-2.04 0 1.02 1.02 0 0 1 2.04 0Z"></path><path stroke="#191921" stroke-width="1.52" d="M26 50.62v-6.1"></path><path fill="#191921" d="M27.52 50.11a1.52 1.52 0 1 0-3.04 0 1.52 1.52 0 0 0 3.04 0Z"></path><path stroke="#191921" stroke-width="1.52" d="M30.79 50.62v-6.1"></path><path fill="#191921" d="M32.31 50.11a1.52 1.52 0 1 0-3.04 0 1.52 1.52 0 0 0 3.04 0Z"></path><path stroke="#191921" stroke-width="1.52" d="M35.57 50.62v-6.1"></path><path fill="#191921" d="M37.1 50.11a1.52 1.52 0 1 0-3.05 0 1.52 1.52 0 0 0 3.05 0Z"></path><path stroke="#191921" stroke-width="1.52" d="M40.36 50.62v-6.1"></path><path fill="#191921" d="M41.9 50.11a1.52 1.52 0 1 0-3.06 0 1.52 1.52 0 0 0 3.05 0Z"></path><path stroke="#191921" stroke-width="1.52" d="M45.15 50.62v-6.1"></path><path fill="#191921" d="M46.68 50.11a1.52 1.52 0 1 0-3.05 0 1.52 1.52 0 0 0 3.05 0Z"></path><path stroke="#191921" stroke-width="1.52" d="M49.94 50.62v-6.1"></path><path fill="#191921" d="M51.47 50.11a1.52 1.52 0 1 0-3.05 0 1.52 1.52 0 0 0 3.05 0Z"></path><path stroke="#191921" stroke-width="1.52" d="M54.73 50.62v-6.1"></path><path fill="#191921" d="M56.26 50.11a1.52 1.52 0 1 0-3.05 0 1.52 1.52 0 0 0 3.05 0Z"></path><path stroke="#191921" stroke-width="1.52" d="M59.52 50.62v-6.1"></path><path fill="#191921" d="M61.05 50.11a1.52 1.52 0 1 0-3.05 0 1.52 1.52 0 0 0 3.05 0Z"></path></g><defs><clipPath id="clip0_1909_2272"><path fill="#fff" d="M22.45 12h40v40h-40z"></path></clipPath></defs></svg> 