<?xml version="1.0" encoding="UTF-8"?> <svg xmlns="http://www.w3.org/2000/svg" fill="none" viewBox="0 0 84 84"><path stroke="#191921" d="M17.44 1.3h-16v16M17.44 83.3h-16v-16M67.44 1.3h16v16M67.44 83.3h16v-16" opacity=".2"></path><path stroke="#191921" stroke-linecap="round" stroke-linejoin="round" stroke-miterlimit="10" stroke-width="2" d="M37.63 40.48a8.17 8.17 0 0 0 4.81 1.64c2.05 0 3.68-.82 4.8-1.64M50.62 27.39v3.27M34.26 27.39v3.27M42.44 27.39v6.55c0 .9-.73 1.63-1.64 1.63M60.44 22.48v-4.9c0-1.82-1.46-3.28-3.27-3.28h-4.91M32.62 14.3H27.7a3.27 3.27 0 0 0-3.27 3.27v4.91M52.26 50.3h4.9c1.82 0 3.28-1.47 3.28-3.27v-4.91M24.44 42.12v4.9c0 1.81 1.46 3.28 3.27 3.28h4.9"></path><path fill="#191921" d="M30.81 71.3v-8.64h1.27v8.64h-1.27Zm.62-3.59v-1.04h4.76v1.04h-4.76Zm0-4v-1.05h5.08v1.04h-5.08Zm9.63 7.59a3 3 0 0 1-.09-.5l-.01-.68h-.06v-2.91c0-.4-.1-.69-.3-.88-.2-.2-.5-.3-.92-.3-.41 0-.74.08-.99.24a.93.93 0 0 0-.42.69h-1.19c.06-.58.32-1.04.78-1.38a3.05 3.05 0 0 1 1.86-.52c.8 0 1.4.19 1.8.56.4.37.6.92.6 1.64v2.86a4.55 4.55 0 0 0 .15 1.18h-1.21Zm-2.12.12c-.62 0-1.12-.15-1.48-.46a1.57 1.57 0 0 1-.56-1.26c0-.54.2-.97.58-1.28.4-.32.95-.54 1.68-.65l2.02-.32v.87l-1.83.3c-.4.06-.71.16-.92.32-.2.15-.3.37-.3.66 0 .28.09.49.27.63.2.14.47.2.83.2.48 0 .88-.11 1.19-.34.32-.23.48-.53.48-.88l.16.89c-.15.42-.4.75-.77.98-.37.23-.82.34-1.35.34Zm7.25 0c-.58 0-1.1-.14-1.56-.4a3.02 3.02 0 0 1-1.08-1.15 3.44 3.44 0 0 1-.38-1.64c0-.62.13-1.16.38-1.63a2.93 2.93 0 0 1 2.63-1.54c.49 0 .92.1 1.3.28a2.55 2.55 0 0 1 1.44 1.93h-1.18a1.47 1.47 0 0 0-1.54-1.19 1.63 1.63 0 0 0-1.53 1c-.15.33-.22.7-.22 1.15 0 .43.07.81.22 1.14.14.33.35.58.61.77.26.17.58.26.94.26.39 0 .72-.1 1-.31.27-.22.45-.5.53-.87h1.18a2.6 2.6 0 0 1-1.45 1.92c-.39.19-.82.28-1.29.28Zm6.47 0a2.9 2.9 0 0 1-2.72-1.54 3.38 3.38 0 0 1-.4-1.65c0-.63.13-1.19.38-1.66a2.8 2.8 0 0 1 1.1-1.11c.48-.27 1.02-.4 1.63-.4.59 0 1.1.13 1.53.38.44.25.78.6 1.01 1.05a3.33 3.33 0 0 1 .35 1.87c0 .08 0 .16-.02.25h-5.14v-.93h4.26l-.31.37c0-.66-.15-1.16-.45-1.5-.3-.35-.7-.52-1.23-.52-.57 0-1.02.2-1.36.59-.33.38-.49.92-.49 1.6 0 .7.16 1.25.5 1.64.33.4.8.59 1.38.59.36 0 .68-.07.94-.22.26-.15.46-.37.59-.66h1.17c-.2.58-.54 1.03-1.02 1.36-.47.33-1.04.49-1.7.49Z"></path></svg> 