<?xml version="1.0" encoding="UTF-8"?> <svg xmlns="http://www.w3.org/2000/svg" width="41" height="39" viewBox="0 0 41 39" fill="none"><g clip-path="url(#clip0_193_789)"><path d="M20.5362 0C21.1672 0.00841424 21.5983 0.322145 21.8873 0.908738C23.6322 4.45834 25.3939 7.99833 27.1351 11.5503C27.2844 11.8557 27.4554 11.9831 27.7962 12.0312C31.6448 12.5757 35.4897 13.1406 39.3359 13.702C39.4997 13.726 39.6634 13.7501 39.8248 13.7837C40.9507 14.0241 41.3818 15.3055 40.6111 16.1613C40.2499 16.5616 39.8465 16.9246 39.4599 17.3021C36.9323 19.7626 34.406 22.2244 31.8736 24.6802C31.6773 24.8701 31.5834 25.0324 31.6376 25.3365C32.3324 29.3056 33.0043 33.2795 33.6859 37.2522C33.7894 37.8569 33.6172 38.3593 33.1247 38.7187C32.6141 39.0914 32.0687 39.0781 31.5135 38.786C27.9696 36.9229 24.4221 35.0657 20.8806 33.1966C20.6133 33.0559 20.4122 33.0451 20.1364 33.1906C16.6359 35.0405 13.1269 36.8736 9.6239 38.7187C9.06997 39.0108 8.52448 39.1334 7.96454 38.7752C7.43349 38.4338 7.20229 37.9362 7.30826 37.3111C7.8393 34.1798 8.37637 31.0497 8.91223 27.9184C9.05914 27.0614 9.18678 26.2019 9.36018 25.3509C9.42039 25.0576 9.34814 24.8857 9.14343 24.6874C6.36177 21.9924 3.58854 19.2902 0.812897 16.5893C0.758709 16.5364 0.708133 16.4811 0.651537 16.4318C0.114471 15.9726 -0.146836 15.4137 0.0891835 14.7141C0.33002 14.0037 0.921273 13.8006 1.60043 13.7044C5.4779 13.1527 9.35296 12.5829 13.2316 12.0336C13.5556 11.9879 13.7169 11.8509 13.8566 11.566C15.6003 8.01637 17.362 4.47517 19.1056 0.925566C19.3995 0.319741 19.839 0 20.5362 0Z" fill="#E3CD00"></path></g><defs><clipPath id="clip0_193_789"><rect width="41" height="39" fill="white"></rect></clipPath></defs></svg> 