<svg xmlns="http://www.w3.org/2000/svg" fill="none" viewBox="0 0 51 178"><path fill="#EFF1F4" d="M26.3 10.65c-4.32 4.12-6.48 10-6.48 17.46 0 2.35.2 5.3.98 8.83l3.92 20.6a47.2 47.2 0 0 1 1.18 9.62c0 5.88-1.76 10.79-4.9 14.52-3.14 3.73-7.85 6.08-13.74 7.26 5.89 1.18 10.6 3.53 13.74 7.26 3.14 3.73 4.9 8.44 4.9 14.32 0 2.75-.4 6.09-1.18 9.81l-3.92 20.6a40.14 40.14 0 0 0-.98 8.84c0 7.65 2.16 13.54 6.47 17.46 4.32 4.12 10.8 6.08 19.04 6.08h5.1v3.93h-5.1c-9.23 0-16.49-2.36-21.78-7.06-5.3-4.72-7.85-11.19-7.85-19.82 0-2.36.2-5.5.98-9.23l3.92-20.8c.6-2.94.98-6.27.98-9.8 0-5.9-1.96-10.6-5.69-14.13-3.72-3.34-9.02-5.1-15.89-5.5v-3.92c6.87-.2 12.17-1.97 16.09-5.5 3.73-3.33 5.7-8.04 5.7-14.13 0-2.94-.4-6.27-1.19-9.8l-3.92-20.8a42.19 42.19 0 0 1-.98-9.23c0-8.44 2.55-15.1 7.85-19.82C28.85 3 36.1.64 45.33.64h5.1v3.92h-5.1c-8.24 0-14.72 2.16-19.04 6.09Z"/></svg>