<svg xmlns="http://www.w3.org/2000/svg" fill="none" viewBox="0 0 51 178"><path fill="#EFF1F4" d="M34.63 96.4c-3.73 3.53-5.5 8.24-5.5 14.12 0 3.54.2 6.87.99 9.81l3.92 20.8c.6 3.73.98 6.87.98 9.23 0 8.63-2.74 15.1-8.04 19.81-5.3 4.71-12.56 7.07-21.59 7.07H.3v-3.93h5.1c8.25 0 14.53-1.96 18.84-6.08 4.32-3.92 6.67-9.81 6.67-17.46 0-2.36-.39-5.3-.98-8.83L26 120.34a48.94 48.94 0 0 1-1.18-9.82c0-5.88 1.57-10.6 4.71-14.32 3.14-3.73 7.85-6.08 13.93-7.26-6.08-1.18-10.79-3.53-13.93-7.26-3.14-3.73-4.7-8.64-4.7-14.52 0-2.75.38-5.89 1.17-9.62l3.92-20.6c.6-3.53.98-6.48.98-8.83 0-7.46-2.35-13.34-6.67-17.46-4.31-3.93-10.6-6.09-18.84-6.09H.3V.64h5.1c9.03 0 16.3 2.35 21.59 7.06 5.3 4.71 8.04 11.38 8.04 19.82 0 2.55-.39 5.7-.98 9.22l-3.92 20.8a45.91 45.91 0 0 0-1.18 9.81c0 6.09 1.77 10.8 5.7 14.13 3.72 3.53 9.02 5.3 16.08 5.5v3.92c-7.06.4-12.36 2.16-16.09 5.5Z"/></svg>