<svg xmlns="http://www.w3.org/2000/svg" fill="none" viewBox="0 0 84 84"><path stroke="gray" d="M17 1H1v16M17 83H1V67M67 1h16v16M67 83h16V67"/><path fill="#fff" d="M28.76 71v-7.6h-2.92v-1.04h7.1v1.04h-2.9V71h-1.28Zm6.67.12c-.62 0-1.17-.14-1.64-.4a2.96 2.96 0 0 1-1.1-1.15 3.42 3.42 0 0 1-.4-1.65c0-.63.13-1.18.4-1.65s.63-.84 1.1-1.1c.47-.27 1.02-.41 1.64-.41.63 0 1.19.14 1.66.4.47.27.83.64 1.09 1.11.26.47.4 1.02.4 1.65 0 .61-.14 1.16-.4 1.65-.26.48-.62.86-1.1 1.14-.46.27-1.02.41-1.65.41Zm0-1.02c.38 0 .7-.1.97-.28.28-.18.5-.44.66-.76.16-.33.24-.72.24-1.16 0-.65-.17-1.17-.52-1.54-.35-.39-.8-.58-1.35-.58-.54 0-.99.2-1.34.58-.35.38-.52.9-.52 1.54 0 .44.08.83.23 1.16a1.77 1.77 0 0 0 1.63 1.04Zm6.3 1.02c-.4 0-.77-.08-1.08-.25a1.92 1.92 0 0 1-.98-1.77v-4.22h1.24v3.94c0 .42.1.74.32.94.2.21.5.32.88.32a1.72 1.72 0 0 0 1.55-.9c.16-.3.24-.62.24-1l.16 1.46a2.47 2.47 0 0 1-2.33 1.48Zm2.22-.12v-1.44h-.05v-4.68h1.24V71h-1.2Zm5.34.12c-.59 0-1.1-.14-1.56-.4a3.02 3.02 0 0 1-1.08-1.15 3.44 3.44 0 0 1-.39-1.64c0-.62.13-1.16.39-1.63a2.93 2.93 0 0 1 2.62-1.54c.5 0 .93.1 1.31.28a2.55 2.55 0 0 1 1.43 1.93h-1.18a1.47 1.47 0 0 0-1.53-1.19 1.63 1.63 0 0 0-1.54 1c-.14.33-.21.7-.21 1.15 0 .43.07.81.21 1.14.15.33.35.58.61.77.27.17.58.26.94.26.4 0 .72-.1 1-.31.28-.22.46-.5.54-.87h1.17a2.6 2.6 0 0 1-1.45 1.92c-.38.19-.81.28-1.28.28Zm3.85-.12v-8.64h1.25V71h-1.25Zm4.34 0v-3.94c0-.42-.1-.74-.32-.94-.21-.21-.52-.32-.94-.32a1.77 1.77 0 0 0-1.84 1.9l-.15-1.46c.2-.46.5-.82.92-1.08.42-.27.9-.4 1.46-.4.65 0 1.17.18 1.54.55.38.37.57.86.57 1.47V71h-1.24ZM22 32.13c0 2.92.37 5.02 1.2 6.8a.75.75 0 0 0 1.36-.62c-.45-.96-.74-2.04-.9-3.35a19.86 19.86 0 0 1-1.49-5.46c-.1.87-.17 1.75-.17 2.63Zm3.52 10.97a.75.75 0 1 0 1.46.3c.23-1.05.34-1.96.38-2.8a20.19 20.19 0 0 1-1.5-1.83 15.5 15.5 0 0 1-.34 4.33Zm29.15-.63a73.72 73.72 0 0 1-.29 3.96.75.75 0 1 0 1.5.15c.2-2 .3-3.84.34-5.52-.5.5-1.01.97-1.55 1.41ZM27.9 45.64a.75.75 0 0 0 1.43.46c.36-1.1.62-2.1.82-3.01-.46-.34-.9-.69-1.32-1.06a27.84 27.84 0 0 1-.93 3.61Zm22.5 3.4a.75.75 0 0 0 1.43.42c.55-1.82.9-3.77 1.1-5.73-.53.35-1.07.67-1.63.96-.2 1.5-.49 2.97-.9 4.34Zm-4.07 1.59a.75.75 0 0 0 1.41.49 35.7 35.7 0 0 0 1.4-5.46c-.54.2-1.08.4-1.63.55-.3 1.53-.7 3-1.18 4.42Zm-13.08-1.45a.75.75 0 1 0 1.35.64c.61-1.3 1.07-2.54 1.42-3.73-.48-.15-.95-.33-1.42-.52a23.95 23.95 0 0 1-1.35 3.61Zm2.92 1.13a.75.75 0 0 0 1.37.63 30.23 30.23 0 0 0 1.54-4.18c-.5-.07-1-.15-1.49-.26-.36 1.22-.82 2.5-1.42 3.81Zm6.73.66a.75.75 0 0 0 1.39.56 30.4 30.4 0 0 0 1.5-4.9c-.53.1-1.06.18-1.6.24-.3 1.24-.7 2.65-1.3 4.1Zm-1.8-2.43a.75.75 0 0 0-.95.47l-.66 2a.75.75 0 0 0 1.42.48l.67-2a.75.75 0 0 0-.48-.95Zm-8.57-4.9a.74.74 0 0 0-.85.47l-.05.1-.02.11c-.28 1.11-1.18 3.38-1.2 3.4a.75.75 0 0 0 1.4.56c.04-.1.87-2.18 1.2-3.42l.05-.18.04-.14a.75.75 0 0 0-.57-.9Zm27.03-5.04a.74.74 0 0 0-.78-.72h-.02a.75.75 0 0 0-.7.77l.01.2c.03.85.05 1.72.05 2.65a.75.75 0 0 0 1.5 0c0-1.02-.02-1.99-.06-2.9Z"/><path fill="#fff" d="M61.82 29.55a20.19 20.19 0 0 0-.61-3.01c-.26.9-.58 1.76-.96 2.6.16.98.25 1.97.25 2.98v.13c0 .35.26.64.6.71.05.02.1.04.15.04.41 0 .75-.34.75-.75v-.13c0-.87-.07-1.72-.18-2.57Zm-38.08-.4c-.37-.84-.68-1.7-.94-2.6l-.06.12a20.1 20.1 0 0 0-.57 2.83c.24 1.92.74 3.75 1.49 5.46-.1-.84-.16-1.78-.16-2.84 0-1 .09-2 .24-2.98Zm34.1 5.8a.75.75 0 0 0 1.48-.15 57.68 57.68 0 0 0-.38-3.2c-.4.62-.82 1.23-1.27 1.8l.16 1.54ZM27.07 36.2c-.09-.7-.18-1.42-.25-2.2a20.2 20.2 0 0 1-1.58-2.1v.21c0 1.69.18 3.01.35 4.29.1.8.2 1.56.25 2.36.47.63.97 1.24 1.5 1.82.1-1.64-.08-2.99-.27-4.38Zm29-1.02c-.45.45-.92.88-1.42 1.28.1 1.72.11 3.72 0 6 .55-.44 1.06-.92 1.56-1.41.05-2.25-.01-4.2-.14-5.87Zm-25.54 2.19c-.58-.41-1.13-.85-1.66-1.32.24 1.71.41 3.43-.04 5.97.42.37.86.72 1.31 1.06.52-2.4.53-4.17.4-5.71Zm22.6.23c-.48.32-.98.62-1.49.9a42.9 42.9 0 0 1-.34 6.18c.56-.3 1.1-.61 1.63-.96.22-2.1.26-4.2.2-6.12Zm-20.9 3.14c0 .41.35.75.76.75.42 0 .75-.34.75-.76l-.02-1.55c-.52-.23-1.03-.49-1.52-.76.02.66.04 1.42.04 2.32Zm15.99-.76a39.41 39.41 0 0 1-.71 6.22c.55-.16 1.09-.35 1.62-.55.35-2 .55-4.07.6-6.22-.49.2-1 .39-1.51.55Zm-12.73-.1c-.05 1.72-.3 3.62-.89 5.68.47.19.94.37 1.42.52.61-2.08.88-4 .96-5.75-.5-.13-1-.28-1.49-.44Zm3.15.8c-.13 1.76-.43 3.71-1.05 5.8.5.12.99.2 1.5.27.6-2.11.9-4.08 1.04-5.86-.5-.04-1-.12-1.5-.2Zm7.02 1.3a.74.74 0 0 0-.8.71c0 .03-.11 1.77-.68 4.17.54-.06 1.08-.14 1.6-.24.48-2.2.58-3.74.58-3.84a.75.75 0 0 0-.7-.8Zm-3.9-1c-.1 1.49-.29 3.08-.63 4.73a.75.75 0 1 0 1.47.3c.37-1.78.57-3.5.67-5.09-.42.03-.85.07-1.28.07l-.23-.02Z"/><path fill="#fff" d="M60.26 29.14c.37-.84.7-1.7.95-2.6-.3-1.05-.67-2.06-1.13-3.03a20 20 0 0 1-.9 1.7c.49 1.26.86 2.57 1.08 3.93Zm-36.6-3a.74.74 0 0 0-.86.42c.26.89.57 1.75.95 2.58.1-.7.25-1.39.44-2.07a.75.75 0 0 0-.52-.92Zm34.3.88c-.36.48-.75.94-1.15 1.39.18.72.55 2.42.86 5 .46-.58.88-1.19 1.27-1.81a35.95 35.95 0 0 0-.77-3.93c-.06-.22-.14-.43-.21-.65Zm-30.75 1.4c-.41-.45-.8-.92-1.17-1.4-.5 1.56-.76 3.21-.78 4.9.48.73 1 1.43 1.58 2.1a21.6 21.6 0 0 1-.09-1.9c0-1.26.16-2.5.46-3.7Zm26.83 2.52c.25 1.29.5 3.13.63 5.53.49-.4.96-.83 1.42-1.28a39.79 39.79 0 0 0-.74-5.33c-.42.38-.85.74-1.3 1.08ZM30 32.12c0-.38.03-.74.06-1.11a20.2 20.2 0 0 1-1.36-1.11c-.12.72-.2 1.46-.2 2.22 0 1.31.16 2.43.32 3.52l.06.42a20 20 0 0 0 1.67 1.31c-.07-.68-.16-1.31-.25-1.95-.15-1.07-.3-2.1-.3-3.3Zm21.2.62c.25 1.53.43 3.55.46 5.77.5-.28 1-.58 1.49-.9a41 41 0 0 0-.55-5.67c-.45.28-.91.55-1.4.8Zm-17.92.23a20.2 20.2 0 0 1-1.53-.82c0 .95.08 1.64.18 2.44.1.91.22 1.99.28 3.83.5.28 1 .53 1.52.77-.05-2.4-.2-3.7-.31-4.77-.06-.51-.11-.96-.14-1.45Zm16.47 4c-.03-1.36-.13-2.49-.24-3.45-.48.2-.96.38-1.45.54a37.9 37.9 0 0 1 .17 5.93c.52-.17 1.03-.35 1.52-.55.02-.82.03-1.63 0-2.47ZM36.7 34.4l-.01-.14c-.53-.14-1.05-.31-1.57-.5l.09.8c.17 1.48.37 3.27.3 5.34.5.17.99.32 1.49.45.1-2.33-.12-4.33-.3-5.95Zm3.33.5c-.52-.05-1.03-.13-1.53-.22.17 1.56.33 3.6.16 6.02.5.09.99.16 1.5.21.17-2.38.03-4.41-.13-6Zm5.1 3.98c.01.42.34.75.76.75s.75-.34.75-.75c0-1.4-.13-2.97-.3-4.36-.48.1-.98.19-1.48.26.15 1.26.27 2.71.28 4.1Zm-1.9-3.94c-.4.03-.8.06-1.22.06l-.28-.01a40 40 0 0 1 .05 6L42 41c.44 0 .86-.03 1.29-.06a40.6 40.6 0 0 0-.07-6Z"/><path fill="#E7E7E7" d="M56.99 21.21a18.65 18.65 0 0 1 2.18 4 20 20 0 0 0 .91-1.7c-.58-1.24-1.3-2.4-2.12-3.5-.3.42-.63.82-.97 1.2Zm-32.87 1.9-.03.05c-.19.37 0 .76.36.95.1.04.2.06.3.06.3 0 .6-.18.74-.46.45-.88.96-1.71 1.52-2.5-.34-.38-.66-.78-.97-1.2-.71.97-1.37 2-1.92 3.1Zm30.5.4a15.37 15.37 0 0 1 2.18 4.9c.41-.44.8-.9 1.16-1.39a16.8 16.8 0 0 0-2.2-4.52c-.37.34-.74.68-1.13 1Zm-25.24 0a20.2 20.2 0 0 1-1.13-1.01 17.03 17.03 0 0 0-2.2 4.52c.36.48.75.95 1.16 1.4a15.5 15.5 0 0 1 2.17-4.91Zm23.84 1.05c-.41.28-.85.53-1.28.78a12.37 12.37 0 0 1 1.7 3.8c.1.36.25.97.4 1.8.45-.34.89-.7 1.31-1.08-.1-.5-.2-.9-.28-1.17a13.61 13.61 0 0 0-1.85-4.13Zm-22.44 0a13.63 13.63 0 0 0-2.08 5.34c.43.4.89.76 1.36 1.11.19-2.09.9-4.02 2-5.67-.43-.25-.86-.5-1.28-.78Zm21.14 4.7a.75.75 0 1 0-1.42.48 15.75 15.75 0 0 1 .7 3c.48-.24.94-.52 1.4-.8l-.11-.6a17.2 17.2 0 0 0-.57-2.08Zm-16.86-2.52c-.48-.18-.96-.38-1.42-.6a10.4 10.4 0 0 0-1.89 5.98v.03c.5.3 1 .57 1.53.83a8.9 8.9 0 0 1 1.79-6.24Zm12.18.54c-.6.16-1.2.3-1.8.4.92.7 1.64 1.68 1.98 2.81.08.27.41 1.45.64 3.57.5-.16.97-.34 1.45-.53-.23-1.95-.54-3.1-.67-3.5a6.93 6.93 0 0 0-1.6-2.75Zm-5.24.97a3.82 3.82 0 0 0-3.75 3.87c0 .45.07 1.04.15 1.79l.09.76c.5.1 1.01.18 1.53.23l-.13-1.16c-.08-.7-.14-1.25-.14-1.62 0-1.3 1.01-2.37 2.25-2.37 1.02 0 1.64.44 2.2 1.58.16.31.44 1.7.65 3.44.5-.07 1-.15 1.48-.26-.21-1.8-.52-3.33-.78-3.85-.52-1.03-1.45-2.41-3.55-2.41Z"/><path fill="#E7E7E7" d="M41.98 31.51a.75.75 0 0 0-.6.88c.01.03.2 1 .33 2.6H42c.41 0 .81-.03 1.22-.05a29.02 29.02 0 0 0-.36-2.84.75.75 0 0 0-.88-.59Zm-4.38-3.97a1.08 1.08 0 0 0-.42-.15.74.74 0 0 0-.64.27A7.23 7.23 0 0 0 35 32.12c0 .48.05 1.04.11 1.64a20 20 0 0 0 1.56.5 21.1 21.1 0 0 1-.17-2.14c0-1.3.42-2.52 1.22-3.53.26-.33.2-.8-.12-1.05Z"/><path fill="#F0F0F0" d="M56.99 21.21c.34-.38.66-.78.97-1.2-.97-1.3-2.09-2.47-3.34-3.5-.4.33-.82.64-1.25.93A18.57 18.57 0 0 1 57 21.21Zm-26.36-3.77c-.42-.3-.84-.6-1.24-.93a20.12 20.12 0 0 0-3.34 3.5c.3.42.63.82.97 1.2a18.46 18.46 0 0 1 3.61-3.77Zm24 6.06c.4-.32.76-.66 1.13-1a16.87 16.87 0 0 0-3.98-4.06c-.5.28-1 .53-1.52.76a15.38 15.38 0 0 1 4.37 4.3Zm-5.48-2.94a.75.75 0 1 0-.8 1.27c1.45.92 2.65 2.11 3.59 3.51.43-.25.87-.5 1.28-.78a13.53 13.53 0 0 0-4.06-4Zm-18.36 4c.4.28.84.53 1.28.78a12.06 12.06 0 0 1 6.14-4.71 20 20 0 0 1-2.37-.61 13.62 13.62 0 0 0-5.05 4.54Zm19.23 1.1a10.16 10.16 0 0 0-16.38.49c.47.21.94.4 1.43.59a8.7 8.7 0 0 1 13.77-.15l.16.13c.26.19.63.2.9 0a.74.74 0 0 0 .27-.48c.03-.2-.01-.4-.15-.58Z"/><path fill="#F0F0F0" d="M42 25c-.77 0-1.52.12-2.24.37l-.14.05a.75.75 0 1 0 .51 1.4l.11-.03c.57-.2 1.16-.3 1.76-.3a5.7 5.7 0 0 1 3.43 1.2c.61-.11 1.21-.25 1.8-.41A7.2 7.2 0 0 0 42 25Zm-8.69-6.44a.75.75 0 0 0-1.04-.17l-.06.04a16.8 16.8 0 0 0-3.96 4.07c.37.34.74.69 1.13 1 1-1.5 2.27-2.82 3.76-3.9a.74.74 0 0 0 .3-.55.75.75 0 0 0-.13-.5Z"/><path fill="#fff" d="M44.76 12.93c-.07.4.2.8.6.88 3.01.55 5.73 1.84 8 3.63.43-.3.85-.6 1.25-.93a19.83 19.83 0 0 0-8.97-4.18c-.41-.08-.8.2-.88.6Zm-3 .57a.75.75 0 0 0-.01-1.5h-.01c-4.6.06-8.92 1.69-12.36 4.51.4.33.82.63 1.24.93 3.13-2.46 7.01-3.89 11.14-3.94Zm.24 1.75c-2.13 0-4.2.4-6.16 1.17a.75.75 0 0 0 .55 1.4 15.05 15.05 0 0 1 13.86 1.38c.52-.24 1.03-.49 1.52-.76a16.64 16.64 0 0 0-9.77-3.2Z"/><path fill="#fff" d="M42 20c1.04 0 2.07.13 3.06.4.4.1.81-.14.92-.54a.75.75 0 0 0-.53-.92 13.4 13.4 0 0 0-9.62 1.08c.78.25 1.57.45 2.38.6 1.2-.4 2.47-.62 3.8-.62Z"/></svg>