<svg xmlns="http://www.w3.org/2000/svg" fill="none" viewBox="0 0 84 84"><path stroke="gray" d="M17 1H1v16M17 83H1V67M67 1h16v16M67 83h16V67"/><rect width="31" height="57.87" x="26.51" y="12.77" stroke="#fff" stroke-width="2" rx="6.2"/><path fill="#FAFAFA" d="M34.32 54.1c.16 0 .28.12.28.27v1.15l.76-.74c.1-.1.28-.1.4 0 .1.1.1.28 0 .38l-.77.74h1.19c.15 0 .28.12.28.27 0 .15-.13.27-.28.27h-1.34l.91.88c.11.11.11.28 0 .39-.1.1-.28.1-.4 0l-.75-.74v1c0 .14-.12.26-.28.26a.27.27 0 0 1-.28-.27v-1.14l-.91.89c-.11.1-.29.1-.4 0a.26.26 0 0 1 0-.39l.92-.88h-1.18a.27.27 0 0 1-.28-.27c0-.15.12-.27.28-.27h1.02l-.76-.74a.26.26 0 0 1 0-.38c.11-.1.29-.1.4 0l.91.9v-1.31c0-.15.13-.27.28-.27ZM39.44 54.1c.16 0 .28.12.28.27v1.15l.76-.74c.1-.1.29-.1.4 0 .1.1.1.28 0 .38l-.76.74h1.18c.15 0 .28.12.28.27 0 .15-.13.27-.28.27h-1.34l.91.88c.11.11.11.28 0 .39-.1.1-.28.1-.39 0l-.76-.74v1c0 .14-.12.26-.28.26a.27.27 0 0 1-.27-.27v-1.14l-.92.89c-.1.1-.29.1-.4 0a.26.26 0 0 1 0-.39l.92-.88H37.6a.27.27 0 0 1-.28-.27c0-.15.12-.27.28-.27h1.02l-.75-.74a.26.26 0 0 1 0-.38c.1-.1.28-.1.39 0l.92.9v-1.31c0-.15.12-.27.27-.27ZM44.84 54.37a.27.27 0 0 0-.27-.27.27.27 0 0 0-.28.27v1.3l-.92-.89a.28.28 0 0 0-.4 0c-.1.1-.1.28 0 .38l.76.74h-1.02a.27.27 0 0 0-.28.27c0 .15.13.27.28.27h1.18l-.91.88c-.11.11-.11.28 0 .39.1.1.28.1.4 0l.9-.9v1.15c0 .15.13.27.29.27.15 0 .27-.12.27-.27v-.99l.76.74c.11.1.29.1.4 0 .1-.11.1-.28 0-.39l-.92-.88h1.34c.16 0 .28-.12.28-.27a.27.27 0 0 0-.28-.27h-1.18l.76-.74c.1-.1.1-.27 0-.38a.28.28 0 0 0-.4 0l-.76.74v-1.15ZM49.69 54.1c.15 0 .28.12.28.27v1.15l.75-.74c.11-.1.29-.1.4 0 .1.1.1.28 0 .38l-.76.74h1.18c.16 0 .28.12.28.27 0 .15-.12.27-.28.27H50.2l.92.88c.1.11.1.28 0 .39-.11.1-.29.1-.4 0l-.75-.74v1c0 .14-.13.26-.28.26a.27.27 0 0 1-.28-.27v-1.14l-.92.89c-.1.1-.28.1-.4 0a.26.26 0 0 1 0-.39l.93-.88h-1.19a.27.27 0 0 1-.28-.27c0-.15.13-.27.28-.27h1.03l-.76-.74a.26.26 0 0 1 0-.38c.1-.1.28-.1.4 0l.9.9v-1.31c0-.15.13-.27.29-.27ZM41.5 38.62a.75.75 0 1 1 1.52 0 .75.75 0 0 1-1.51 0Z"/><path fill="#FAFAFA" fill-rule="evenodd" d="M42.26 30.33a3.47 3.47 0 0 0-3.46 3.47v.67l.01.12a3.01 3.01 0 0 0-1.83 1.9c-.14.45-.14 1-.14 2.13 0 1.12 0 1.68.14 2.14.3.92 1.02 1.64 1.94 1.93.45.15 1.01.15 2.14.15h2.4c1.13 0 1.69 0 2.14-.15a3.01 3.01 0 0 0 1.94-1.93c.15-.46.15-1.02.15-2.14s0-1.68-.15-2.14a3.01 3.01 0 0 0-1.83-1.9.45.45 0 0 0 .02-.11v-.67a3.47 3.47 0 0 0-3.47-3.47Zm1.2 4.07a25 25 0 0 1 1.36.02v-.62a2.56 2.56 0 1 0-5.12 0v.62c.34-.02.77-.02 1.36-.02h2.4Zm-2.86 4.22a1.66 1.66 0 1 1 3.32 0 1.66 1.66 0 0 1-3.32 0Z" clip-rule="evenodd"/><path stroke="#fff" stroke-linecap="round" stroke-width="2" d="M39.94 17.93h4.13M25.8 34.65v-2.1M25.8 29.72v-2.11M58.21 33.25V26.9"/></svg>