<svg xmlns="http://www.w3.org/2000/svg" fill="none" viewBox="0 0 84 84"><path stroke="gray" d="M17 1H1v16M17 83H1V67M67 1h16v16M67 83h16V67"/><path fill="#fff" d="M32.6 71v-7.6H29.7v-1.04h7.1v1.04h-2.92V71H32.6Zm5.34 0v-8.64h3.66c.63 0 1.16.1 1.6.31.44.21.78.5 1 .89.25.38.37.84.37 1.37 0 .53-.12 1-.36 1.39-.23.38-.57.68-1.02.9-.44.22-.97.32-1.59.32h-2.68V66.5h2.62c.57 0 1-.14 1.3-.41.3-.27.46-.65.46-1.14 0-.5-.15-.88-.45-1.14-.3-.26-.73-.4-1.3-.4h-2.33V71h-1.28Zm7.82 0v-8.64h1.97l2.88 8.33h-.65l2.85-8.33h2V71h-1.26v-8.12h.19L50.95 71h-1.41l-2.79-8.05h.2V71h-1.2Z"/><g clip-path="url(#clip0_1354_1444)"><rect width="38.6" height="20.32" x="23.02" y="21.86" stroke="#fff" stroke-width="1.52" rx="2.03"/><path fill="#fff" d="M44.25 34.66v-5.7h1.21l1.82 4.49 1.79-4.48h1.19v5.69h-.9v-4.19l-1.71 4.19h-.8l-1.7-4.19v4.19h-.9ZM39.32 34.66v-5.7h2.24c1.2 0 1.97.72 1.97 1.82s-.78 1.81-1.97 1.81h-1.3v2.07h-.94Zm2.17-4.88h-1.23v2h1.22c.67 0 1.1-.39 1.1-1 0-.62-.42-1-1.09-1ZM34.2 29.8v-.83h4.44v.83h-1.76v4.86h-.93V29.8h-1.76Z"/><path stroke="#fff" stroke-width="1.52" d="M25.56 12.72v6.1"/><path fill="#fff" d="M27.08 13.22a1.52 1.52 0 1 1-3.04 0 1.52 1.52 0 0 1 3.04 0Z"/><path stroke="#fff" stroke-width="1.52" d="M30.35 12.72v6.1"/><path fill="#fff" d="M31.87 13.22a1.52 1.52 0 1 1-3.04 0 1.52 1.52 0 0 1 3.04 0Z"/><path stroke="#fff" stroke-width="1.52" d="M35.13 12.72v6.1"/><path fill="#fff" d="M36.66 13.22a1.52 1.52 0 1 1-3.04 0 1.52 1.52 0 0 1 3.04 0Z"/><path stroke="#fff" stroke-width="1.52" d="M39.92 12.72v6.1"/><path fill="#fff" d="M41.45 13.22a1.52 1.52 0 1 1-3.05 0 1.52 1.52 0 0 1 3.05 0Z"/><path stroke="#fff" stroke-width="1.52" d="M44.71 12.72v6.1"/><path fill="#fff" d="M46.24 13.22a1.52 1.52 0 1 1-3.05 0 1.52 1.52 0 0 1 3.05 0Z"/><path stroke="#fff" stroke-width="1.52" d="M49.5 12.72v6.1"/><path fill="#fff" d="M51.03 13.22a1.52 1.52 0 1 1-3.05 0 1.52 1.52 0 0 1 3.05 0Z"/><path stroke="#fff" stroke-width="1.52" d="M54.3 12.72v6.1"/><path fill="#fff" d="M55.82 13.22a1.52 1.52 0 1 1-3.05 0 1.52 1.52 0 0 1 3.05 0Z"/><path stroke="#fff" stroke-width="1.52" d="M59.08 12.72v6.1"/><path fill="#fff" d="M60.6 13.22a1.52 1.52 0 1 1-3.04 0 1.52 1.52 0 0 1 3.05 0ZM28.1 25.92a1.02 1.02 0 1 1-2.03 0 1.02 1.02 0 0 1 2.03 0ZM58.57 25.92a1.02 1.02 0 1 1-2.03 0 1.02 1.02 0 0 1 2.03 0ZM28.1 38.11a1.02 1.02 0 1 1-2.03 0 1.02 1.02 0 0 1 2.03 0ZM58.57 38.11a1.02 1.02 0 1 1-2.03 0 1.02 1.02 0 0 1 2.03 0Z"/><path stroke="#fff" stroke-width="1.52" d="M25.56 50.32v-6.1"/><path fill="#fff" d="M27.08 49.81a1.52 1.52 0 1 0-3.04 0 1.52 1.52 0 0 0 3.04 0Z"/><path stroke="#fff" stroke-width="1.52" d="M30.35 50.32v-6.1"/><path fill="#fff" d="M31.87 49.81a1.52 1.52 0 1 0-3.04 0 1.52 1.52 0 0 0 3.04 0Z"/><path stroke="#fff" stroke-width="1.52" d="M35.13 50.32v-6.1"/><path fill="#fff" d="M36.66 49.81a1.52 1.52 0 1 0-3.04 0 1.52 1.52 0 0 0 3.04 0Z"/><path stroke="#fff" stroke-width="1.52" d="M39.92 50.32v-6.1"/><path fill="#fff" d="M41.45 49.81a1.52 1.52 0 1 0-3.05 0 1.52 1.52 0 0 0 3.05 0Z"/><path stroke="#fff" stroke-width="1.52" d="M44.71 50.32v-6.1"/><path fill="#fff" d="M46.24 49.81a1.52 1.52 0 1 0-3.05 0 1.52 1.52 0 0 0 3.05 0Z"/><path stroke="#fff" stroke-width="1.52" d="M49.5 50.32v-6.1"/><path fill="#fff" d="M51.03 49.81a1.52 1.52 0 1 0-3.05 0 1.52 1.52 0 0 0 3.05 0Z"/><path stroke="#fff" stroke-width="1.52" d="M54.3 50.32v-6.1"/><path fill="#fff" d="M55.82 49.81a1.52 1.52 0 1 0-3.05 0 1.52 1.52 0 0 0 3.05 0Z"/><path stroke="#fff" stroke-width="1.52" d="M59.08 50.32v-6.1"/><path fill="#fff" d="M60.6 49.81a1.52 1.52 0 1 0-3.04 0 1.52 1.52 0 0 0 3.05 0Z"/></g><defs><clipPath id="clip0_1354_1444"><path fill="#fff" d="M22 11.7h40v40H22z"/></clipPath></defs></svg>