<svg xmlns="http://www.w3.org/2000/svg" fill="none" viewBox="0 0 84 84"><path stroke="gray" d="M17 .63H1v16M17 82.63H1v-16M67 .63h16v16M67 82.63h16v-16"/><path fill="#fff" d="M29.33 48.68c.43.53.75 1.17.96 1.81.22.64.32 1.39.32 2.13 0 .75-.1 1.5-.32 2.14a5.93 5.93 0 0 1-.96 1.81c-.53.75-.42 1.81.32 2.35.75.53 1.82.42 2.35-.32.64-.86 1.07-1.7 1.5-2.77.42-1.07.53-2.14.53-3.2A10.01 10.01 0 0 0 32 46.66c-.53-.75-1.6-.86-2.35-.33-.74.54-.85 1.6-.32 2.35ZM35.2 45.59a13.24 13.24 0 0 1 0 14.07c-.53.75-.21 1.82.53 2.35.86.54 1.82.22 2.35-.53a16.55 16.55 0 0 0 0-17.7c-.53-.76-1.6-1.08-2.35-.54-.74.53-1.06 1.5-.53 2.34Z"/><path fill="#fff" d="M41.39 42.38a19.64 19.64 0 0 1 2.77 10.24 20.7 20.7 0 0 1-2.77 10.25c-.43.85-.22 1.8.64 2.34.85.43 1.81.22 2.34-.64a22.85 22.85 0 0 0 3.31-11.94c0-4.38-1.17-8.43-3.3-11.95-.43-.85-1.5-1.07-2.35-.64a1.74 1.74 0 0 0-.64 2.34Z"/><path fill="#fff" d="M47.57 39.19a27.22 27.22 0 0 1 3.63 13.44c0 4.9-1.28 9.49-3.63 13.43-.42.86-.21 1.82.64 2.35.86.43 1.82.22 2.35-.64a30.32 30.32 0 0 0 0-30.3c-.43-.84-1.5-1.06-2.35-.63-.85.42-1.06 1.5-.64 2.34ZM31.1 21.63v-8.64h1.48l4.58 7.39-.29.06v-7.46h1.23v8.64h-1.48l-4.58-7.39.28-.06v7.46H31.1Zm8.78 0v-8.64h1.27v8.63h-1.27Zm.62-3.6V17h4.75v1.05H40.5Zm0-4v-1.04h5.08v1.04H40.5Zm10.05 7.72a4.1 4.1 0 0 1-3-1.25c-.37-.4-.66-.88-.86-1.42a4.97 4.97 0 0 1-.32-1.79c0-.64.1-1.24.3-1.77.21-.55.5-1.01.87-1.4.37-.4.82-.71 1.33-.93a4.25 4.25 0 0 1 3.48.08c.54.27.97.64 1.3 1.13.35.49.56 1.06.64 1.7h-1.24c-.1-.68-.38-1.2-.83-1.58-.44-.38-1-.57-1.67-.57a2.72 2.72 0 0 0-2.52 1.58c-.24.5-.36 1.08-.36 1.76 0 .68.12 1.27.36 1.78a2.7 2.7 0 0 0 2.52 1.6c.67 0 1.23-.2 1.68-.57.46-.38.73-.92.83-1.6h1.26a3.6 3.6 0 0 1-1.97 2.84c-.53.27-1.13.4-1.8.4Z"/></svg>