<svg xmlns="http://www.w3.org/2000/svg" fill="none" viewBox="0 0 84 84"><path stroke="gray" d="M17 .63H1v16M17 82.63H1v-16M67 .63h16v16M67 82.63h16v-16"/><path fill="#fff" d="M30.54 20.39a.6.6 0 0 0 .08.83.58.58 0 0 0 .82-.08 33.5 33.5 0 0 1 9-7.7c.43-.25.87-.48 1.32-.69a.6.6 0 0 0 .29-.78.59.59 0 0 0-.78-.29c-.48.22-.96.47-1.42.74a34.7 34.7 0 0 0-9.31 7.97ZM25.22 25.73c-.1 0-.2-.02-.29-.07a.6.6 0 0 1-.23-.8 37.47 37.47 0 0 1 10.1-11.88c.26-.2.63-.15.83.11a.6.6 0 0 1-.11.83 36.28 36.28 0 0 0-9.79 11.5c-.1.2-.3.31-.51.31ZM22.55 25.73a.6.6 0 0 1-.53-.86c.46-.9.96-1.8 1.48-2.66a.59.59 0 0 1 .8-.2.6.6 0 0 1 .2.8c-.5.85-.98 1.72-1.42 2.6-.1.2-.3.32-.52.32ZM64.85 41.66a.6.6 0 0 0-.05-.83.59.59 0 0 0-.83.06c-.77.88-1.62 1.7-2.53 2.44-.48.39-.67 1.05-.48 1.64l.42 1.34a.59.59 0 1 0 1.13-.35l-.43-1.35a.33.33 0 0 1 .1-.36c.96-.78 1.86-1.65 2.67-2.58ZM64.01 44.22a.6.6 0 0 1 .8.87l-.08.08.24.8a.6.6 0 0 1-.56.76.59.59 0 0 1-.56-.43l-.35-1.14a.6.6 0 0 1 .17-.62l.34-.32ZM63.19 48.33a39.53 39.53 0 0 1 1.16 6.1.6.6 0 0 1-.59.66.59.59 0 0 1-.58-.52 39.89 39.89 0 0 0-1.13-5.94.59.59 0 1 1 1.14-.3Z"/><path fill="#fff" d="M59.32 43.72a.33.33 0 0 1 .12-.37 19.26 19.26 0 0 0 5.47-5.7.6.6 0 0 0-.19-.82.59.59 0 0 0-.8.19 18.1 18.1 0 0 1-5.14 5.35 1.5 1.5 0 0 0-.58 1.71l.26.8c1.33 4.1 2.83 9.5 2.52 15.1a.6.6 0 0 0 .55.62h.04c.3 0 .56-.24.58-.56.32-5.79-1.2-11.34-2.58-15.52l-.25-.8ZM20.87 38.64h.08c.3 0 .54-.2.59-.5a37.75 37.75 0 0 1 3.35-11.07.59.59 0 1 0-1.06-.52 38.98 38.98 0 0 0-3.46 11.42.6.6 0 0 0 .5.67ZM22.92 55.62a.59.59 0 0 1-.74-.38c-1.36-4.25-2.54-8.98-2.08-14.84a.6.6 0 0 1 .64-.54.6.6 0 0 1 .54.63c-.45 5.66.7 10.26 2.02 14.39a.6.6 0 0 1-.38.74ZM58 49.49a.6.6 0 0 0-.42.72c1.22 4.86 1.4 9.26.55 13.44a.6.6 0 0 0 .57.7c.28 0 .52-.18.58-.46.89-4.36.7-8.93-.56-13.97a.59.59 0 0 0-.71-.43Z"/><path fill="#fff" d="M56 41.43c.14-.16.3-.28.45-.38a15.88 15.88 0 0 0 7.28-9.4.59.59 0 1 1 1.14.33c-1.22 4.27-4 7.85-7.82 10.1a.68.68 0 0 0-.16.13c-.23.26-.3.65-.19 1.03a77.48 77.48 0 0 0 1.05 3.3.6.6 0 0 1-.56.77.59.59 0 0 1-.56-.42l-.41-1.26a78.8 78.8 0 0 1-.65-2.05 2.3 2.3 0 0 1 .43-2.15ZM25.8 29.94a.6.6 0 0 1-.54-.82 36.04 36.04 0 0 1 4.1-7.22.6.6 0 0 1 .95.7 34.84 34.84 0 0 0-3.97 6.98.59.59 0 0 1-.54.36ZM24.32 31.57a36.9 36.9 0 0 0-1.87 9.02c-.43 5.4.7 9.9 1.87 13.61a.59.59 0 1 0 1.12-.35c-1.19-3.78-2.23-7.99-1.82-13.17a35.7 35.7 0 0 1 1.81-8.73.59.59 0 1 0-1.11-.39ZM24.94 56.52a.6.6 0 0 1-.22.8c-.24.15-.5.3-.79.45l-.9.55a.59.59 0 0 1-.81-.18.6.6 0 0 1 .18-.82c.3-.2.63-.4.96-.58l.77-.44a.59.59 0 0 1 .8.22ZM55.24 48.37a.6.6 0 0 0-.4.73c1.23 4.25 2.56 10.7-.05 17.64a.6.6 0 0 0 .55.8c.24 0 .46-.15.55-.38 2.74-7.27 1.36-13.98.08-18.39a.59.59 0 0 0-.73-.4Z"/><path fill="#fff" d="M54.03 40.12c.35-.46.77-.84 1.24-1.11a13.5 13.5 0 0 0 6.28-8.3c.5-1.9.58-3.85.25-5.77a.59.59 0 1 1 1.16-.2c.36 2.09.27 4.2-.28 6.28-1 3.82-3.42 7.02-6.82 9-.33.2-.63.48-.89.82a3.54 3.54 0 0 0-.5 3.13c.15.53.36 1.21.63 2.03a.6.6 0 0 1-.56.77.59.59 0 0 1-.56-.4l-.65-2.06a4.73 4.73 0 0 1 .7-4.2ZM25.96 34.23a.6.6 0 0 0 .57.75c.25 0 .49-.17.56-.43a31.8 31.8 0 0 1 14.54-19.06 13.5 13.5 0 0 1 6.82-1.85.59.59 0 0 0 0-1.19c-2.6 0-5.16.7-7.41 2.02a32.98 32.98 0 0 0-15.08 19.76ZM27.5 55.11l.2-.06-.57.19.38-.13Z"/><path fill="#fff" d="m28.25 54.87-.74.24-.38.13c-1.25-3.82-2.8-8.57-2.33-14.46.1-1.2.25-2.39.47-3.56a.59.59 0 1 1 1.15.22 33.5 33.5 0 0 0-.45 3.43c-.45 5.65 1.06 10.28 2.28 14ZM27.1 57.96a.6.6 0 0 1-.2.81c-.54.34-1.16.7-1.82 1.07-.34.19-.67.4-.98.6a.58.58 0 0 1-.82-.16.6.6 0 0 1 .16-.82c.34-.23.7-.45 1.07-.65l1.78-1.04a.59.59 0 0 1 .81.19ZM52.86 46.74c-.17-.53-.43-1.33-.65-2.07a5.98 5.98 0 0 1 .8-5.16 5.42 5.42 0 0 1 1.67-1.53 12.31 12.31 0 0 0 4.95-5.41.6.6 0 0 0-.28-.79.59.59 0 0 0-.79.28 11.13 11.13 0 0 1-4.48 4.9 6.59 6.59 0 0 0-2.02 1.85 7.17 7.17 0 0 0-.98 6.2c.22.75.49 1.56.66 2.1 1.44 4.4 3.85 11.77.52 19.6-.3.7-.62 1.38-.98 2.03a.6.6 0 0 0 .52.87c.2 0 .41-.1.52-.3.37-.69.71-1.4 1.02-2.13 3.51-8.24 1.01-15.88-.48-20.44ZM59.27 30.11l.08-.31c.65-2.8.21-5.72-1.23-8.21a.6.6 0 0 1 .2-.81.59.59 0 0 1 .81.2 12.42 12.42 0 0 1 1.28 9.44.59.59 0 1 1-1.14-.3ZM42.23 16.51a29.96 29.96 0 0 0-6.2 4.83.6.6 0 0 0 .41 1c.15 0 .3-.05.42-.17a28.85 28.85 0 0 1 5.96-4.64 11.16 11.16 0 0 1 13.92 2.16c.22.25.59.26.83.04a.6.6 0 0 0 .04-.83 12.39 12.39 0 0 0-15.38-2.4v.01Z"/><path fill="#fff" d="M30.34 59.29a36.61 36.61 0 0 1-4.12 2.63c-.29.15-.57.33-.85.52a.59.59 0 0 1-.82-.16.6.6 0 0 1 .16-.83c.3-.2.62-.4.94-.57a35.54 35.54 0 0 0 3.97-2.53c.45-.35.64-.95.48-1.52a71.1 71.1 0 0 0-.73-2.32c-1.18-3.63-2.66-8.13-2.22-13.54a31.44 31.44 0 0 1 7.12-17.7c.21-.24.58-.28.83-.07.25.21.28.58.08.83a30.26 30.26 0 0 0-6.86 17.03c-.41 5.18 1.02 9.55 2.17 13.06.19.58.5 1.53.74 2.39a2.6 2.6 0 0 1-.89 2.78ZM52.13 60.02a.59.59 0 0 0-.66.52c-.2 1.8-.66 3.57-1.38 5.25a21.63 21.63 0 0 1-2.12 3.84.6.6 0 0 0 .48.93c.19 0 .37-.09.48-.25a22.84 22.84 0 0 0 2.24-4.06 19.93 19.93 0 0 0 1.47-5.58.6.6 0 0 0-.51-.65ZM53.7 35.13a.6.6 0 0 1-.2.8 8.6 8.6 0 0 0-4.05 6.83c-.07.9.62 3.02 1.18 4.71.82 2.53 1.85 5.68 2.1 9.3a.6.6 0 0 1-.55.63h-.04a.59.59 0 0 1-.6-.55c-.22-3.47-1.23-6.54-2.03-9-.65-2-1.32-4.04-1.23-5.19.26-3.3 1.99-6.2 4.62-7.74a.59.59 0 0 1 .8.2Z"/><path fill="#fff" d="M55.6 33.45a.58.58 0 0 0 .82-.1c.8-1.06 1.37-2.25 1.71-3.54a10.04 10.04 0 0 0-14.72-11.26 28.06 28.06 0 0 0-10.26 10.5.6.6 0 0 0 .23.81c.28.16.64.06.8-.22a26.88 26.88 0 0 1 9.83-10.06 8.8 8.8 0 0 1 12.07 3.2 8.86 8.86 0 0 1-.6 9.84.6.6 0 0 0 .12.83ZM32.72 53.39c1.03 3.15 1.44 4.68 1.13 5.41-.77 1.82-3.87 3.73-6.49 5.18l-.51.31a.59.59 0 0 1-.82-.17.6.6 0 0 1 .18-.82l.58-.35c1.32-.74 5.27-2.94 5.98-4.62.15-.53-.73-3.24-1.16-4.56v-.01c-1.12-3.42-2.51-7.67-2.12-12.6a29.56 29.56 0 0 1 2.42-9.6c.13-.3.48-.44.77-.3.3.13.44.47.3.77a28.37 28.37 0 0 0-2.31 9.22c-.38 4.7.97 8.82 2.05 12.13ZM48.39 48.21c-.72-2.19-1.4-4.26-1.29-5.64.11-1.41.46-2.76 1.04-4.02a.6.6 0 0 0-.28-.78.59.59 0 0 0-.79.29 12.96 12.96 0 0 0-1.14 4.41c-.13 1.62.58 3.8 1.34 6.11 1.39 4.26 3.3 10.09.66 16.27-.9 2.11-2.15 4-3.81 5.78a.6.6 0 0 0 .43 1c.16 0 .31-.07.43-.2A20.72 20.72 0 0 0 49 65.33c2.81-6.6.83-12.67-.62-17.1Z"/><path fill="#fff" d="M55.07 23.37a7.68 7.68 0 0 1 .78 5.84 7.64 7.64 0 0 1-3.55 4.68c-.95.56-1.8 1.28-2.54 2.13a.59.59 0 0 1-.83.06.6.6 0 0 1-.06-.83c.82-.96 1.78-1.76 2.84-2.38a6.5 6.5 0 0 0-6.52-11.25.59.59 0 0 1-.8-.21.6.6 0 0 1 .2-.81 7.63 7.63 0 0 1 10.48 2.77ZM42.24 23.66a.6.6 0 0 0 .09-.83.59.59 0 0 0-.83-.09 26.66 26.66 0 0 0-9.66 18.6c-.06.78-.07 1.59-.04 2.4.02.31.28.56.59.56h.03c.32-.01.57-.29.56-.61-.04-.77-.02-1.52.03-2.25a25.47 25.47 0 0 1 9.23-17.78ZM34.96 52.65c.99 3.02 1.77 5.4 1.06 7.08-1.05 2.47-4.39 4.58-7.51 6.32a.59.59 0 0 1-.8-.23.6.6 0 0 1 .23-.8c2.95-1.65 6.08-3.62 7-5.76.53-1.26-.19-3.46-1.1-6.24V53a45.84 45.84 0 0 1-1.68-6.13.59.59 0 1 1 1.16-.21 44.8 44.8 0 0 0 1.64 5.99ZM46.15 48.95c-.5-1.52-.97-2.95-1.22-4.28a.59.59 0 1 0-1.16.22c.27 1.4.75 2.88 1.26 4.43 1.34 4.11 3.02 9.23.73 14.6a18.28 18.28 0 0 1-4.95 6.62.6.6 0 0 0 .39 1.03c.14 0 .27-.05.39-.14a19.44 19.44 0 0 0 5.25-7.04c2.47-5.78.72-11.13-.69-15.44Z"/><path fill="#fff" d="M44.75 42.38a.59.59 0 0 1-.58.54h-.05a.59.59 0 0 1-.54-.63 14.5 14.5 0 0 1 6.95-11.46 4.13 4.13 0 0 0-4.15-7.16c-.99.58-1.94 1.24-2.83 1.97a.59.59 0 0 1-.83-.08.6.6 0 0 1 .09-.83c.93-.78 1.93-1.48 2.97-2.08a5.28 5.28 0 0 1 7.25 1.92 5.3 5.3 0 0 1-1.91 7.28c-3.63 2.12-6.01 6.06-6.37 10.53ZM36.3 61.6a.6.6 0 0 0 .47.93c.18 0 .36-.08.48-.24.38-.53.7-1.08.93-1.63 1.06-2.5.16-5.25-.98-8.75-1-3.06-2.14-6.53-1.84-10.28.4-5.07 2.44-9.9 5.73-13.61a.6.6 0 0 0-.05-.84.59.59 0 0 0-.83.05 24.58 24.58 0 0 0-6.02 14.3c-.32 4 .86 7.58 1.9 10.75 1.06 3.26 1.9 5.83 1.01 7.92-.2.46-.47.93-.8 1.4ZM35.04 63a.6.6 0 0 1 .81.86 27.03 27.03 0 0 1-5.31 3.76c-.1.05-.2.07-.3.07-.2 0-.4-.1-.5-.3a.6.6 0 0 1 .21-.8 25.96 25.96 0 0 0 5.1-3.58ZM44.68 63.46c1.7-4 .97-7.88.15-10.82a.59.59 0 1 0-1.14.32c.82 2.92 1.45 6.4-.1 10.03-1.1 2.59-3.04 4.9-5.94 7.06A.6.6 0 0 0 38 71.1c.12 0 .25-.03.35-.11 3.07-2.3 5.14-4.76 6.33-7.54Z"/><path fill="#fff" d="m43.91 49.69-1.12.37c-.9-2.78-1.76-5.4-1.56-7.96a16.87 16.87 0 0 1 8.11-13.32 1.77 1.77 0 0 0-1.78-3.07 20.3 20.3 0 0 0-9.27 12.55.59.59 0 1 1-1.14-.3c1.42-5.6 5-10.45 9.82-13.27A2.94 2.94 0 0 1 51.3 28c-.2.76-.69 1.4-1.37 1.8a15.69 15.69 0 0 0-7.52 12.4c-.19 2.32.63 4.83 1.5 7.49ZM40.42 58.53h.02a.59.59 0 0 0 .57-.6c-.07-2.15-.8-4.38-1.57-6.75v-.01c-.98-2.99-1.99-6.08-1.73-9.36a.6.6 0 0 0-.54-.63.6.6 0 0 0-.63.54c-.28 3.51.77 6.72 1.78 9.82.75 2.28 1.45 4.44 1.51 6.42.01.32.27.57.59.57ZM40.04 60.82c.3.13.43.47.3.77-1.44 3.41-4.77 5.76-7.51 7.42a.59.59 0 0 1-.81-.2.6.6 0 0 1 .2-.81c3.84-2.34 6.01-4.45 7.04-6.87.13-.3.48-.44.78-.31Z"/><path fill="#fff" d="M39.47 42.55c.3 0 .56-.24.59-.55a18.06 18.06 0 0 1 8.69-14.24.6.6 0 0 0 .21-.81.59.59 0 0 0-.8-.21 19.24 19.24 0 0 0-9.28 15.17.6.6 0 0 0 .6.64ZM41.67 50.43c1.28 3.91 2.6 7.96.84 12.1-1.2 2.8-3.45 5.23-7.08 7.63a.58.58 0 0 1-.82-.17.6.6 0 0 1 .17-.82c3.44-2.26 5.55-4.52 6.65-7.11 1.59-3.73.4-7.38-.87-11.26-.55-1.66-1.11-3.38-1.43-5.1a.59.59 0 1 1 1.16-.22c.3 1.65.85 3.33 1.38 4.95Z"/><path fill="url(#paint0_linear_1354_1361)" d="M0 41.63h83v41H0z" opacity=".1"/><path stroke="#fff" stroke-width="2" d="M0 41.63h83"/><defs><linearGradient id="paint0_linear_1354_1361" x1="41.5" x2="41.5" y1="41.63" y2="82.63" gradientUnits="userSpaceOnUse"><stop stop-color="#fff"/><stop offset="1" stop-color="#fff" stop-opacity="0"/></linearGradient></defs></svg>