<svg xmlns="http://www.w3.org/2000/svg" fill="none" viewBox="0 0 84 84"><path stroke="gray" d="M17 .63H1v16M17 82.63H1v-16M67 .63h16v16M67 82.63h16v-16"/><path fill="#fff" d="M13.98 70.75a4.02 4.02 0 0 1-3.02-1.26 4.43 4.43 0 0 1-1.2-3.22c0-.86.17-1.63.53-2.3a3.9 3.9 0 0 1 1.49-1.54 4.23 4.23 0 0 1 2.18-.56c.84 0 1.57.18 2.2.56a3.9 3.9 0 0 1 1.49 1.55c.37.66.55 1.43.55 2.3 0 .65-.1 1.25-.32 1.8a4.07 4.07 0 0 1-3.9 2.66Zm-.02-1.08a2.72 2.72 0 0 0 2.56-1.65c.26-.51.38-1.1.38-1.76 0-.66-.12-1.23-.37-1.73a2.77 2.77 0 0 0-2.57-1.59 2.8 2.8 0 0 0-2.56 1.57c-.23.5-.35 1.08-.35 1.75 0 .67.12 1.26.37 1.77a2.72 2.72 0 0 0 2.54 1.63Zm9.9.95v-6.7c0-.63.18-1.1.53-1.43.35-.34.9-.5 1.62-.5h2.33V63h-2.23c-.35 0-.6.08-.77.26-.16.17-.24.4-.24.72v6.63h-1.24Zm-3.9 0v-6.7c0-.63.18-1.1.53-1.43.35-.34.88-.5 1.59-.5.16 0 .29 0 .4.02l.27.07v1a2.16 2.16 0 0 0-.53-.07c-.35 0-.6.08-.77.26-.16.17-.24.4-.24.72v6.63h-1.25Zm-1.17-5.07V64.5h7.62v1.05h-7.62Zm8.97 5.08v-8.64H29v8.63h-1.24Zm2.82 0V64.5h1.25v6.13h-1.25Zm-.06-7.32v-1.4h1.38v1.4h-1.38Zm2.94 7.31V64.5h1.19v1.44h.06v4.69h-1.25Zm4.34 0V66.7c0-.42-.1-.74-.32-.95-.21-.2-.52-.31-.94-.31a1.77 1.77 0 0 0-1.84 1.9l-.15-1.47c.2-.45.5-.81.92-1.08.42-.26.9-.4 1.46-.4.65 0 1.17.19 1.54.56.38.37.57.85.57 1.46v4.22H37.8Zm5.46.13c-.62 0-1.16-.14-1.64-.41a2.9 2.9 0 0 1-1.09-1.13 3.38 3.38 0 0 1-.4-1.66c0-.63.13-1.18.39-1.65a2.8 2.8 0 0 1 1.1-1.12c.48-.26 1.02-.4 1.62-.4.6 0 1.1.13 1.54.39.44.25.78.6 1 1.04a3.33 3.33 0 0 1 .36 1.88l-.03.25h-5.13V67h4.26l-.32.37c0-.65-.14-1.15-.44-1.5-.3-.34-.7-.51-1.24-.51-.56 0-1.02.2-1.35.58-.33.39-.5.92-.5 1.61 0 .7.17 1.24.5 1.64.33.39.8.58 1.39.58.36 0 .67-.07.94-.21.26-.16.46-.38.58-.66h1.18c-.2.57-.54 1.02-1.02 1.35-.47.33-1.04.5-1.7.5Zm6.3-.13v-8.64h1.28v8.65h-1.28Zm1.01-4.48 4.29-4.16h1.74l-4.43 4.16h-1.6Zm4.48 4.48-4.5-4.48h1.62l4.67 4.48h-1.8Zm4.81.13c-.61 0-1.16-.14-1.63-.41a2.9 2.9 0 0 1-1.09-1.13 3.38 3.38 0 0 1-.4-1.66c0-.63.13-1.18.39-1.65a2.8 2.8 0 0 1 1.1-1.12c.47-.26 1.01-.4 1.62-.4.6 0 1.1.13 1.54.39.44.25.77.6 1 1.04a3.33 3.33 0 0 1 .35 1.88c0 .08 0 .16-.02.25h-5.14V67h4.26l-.3.37c0-.65-.16-1.15-.45-1.5-.3-.34-.71-.51-1.24-.51-.57 0-1.02.2-1.35.58-.33.39-.5.92-.5 1.61 0 .7.17 1.24.5 1.64.33.39.8.58 1.39.58.36 0 .67-.07.93-.21.27-.16.46-.38.6-.66h1.17c-.2.57-.54 1.02-1.02 1.35-.47.33-1.04.5-1.7.5Zm4.34 2.33 1.48-3.37.25-.4 1.86-4.8h1.3l-3.6 8.57H64.2Zm1.42-2.45L63 64.5h1.36l2.22 5.51-.96.61Zm6.43.12c-.8 0-1.44-.18-1.91-.53a2.01 2.01 0 0 1-.8-1.5h1.15c.05.36.21.63.48.83.27.18.64.27 1.1.27.41 0 .72-.07.94-.21a.7.7 0 0 0 .32-.62c0-.19-.06-.35-.19-.48-.12-.13-.36-.25-.72-.33l-.98-.23a2.97 2.97 0 0 1-1.38-.67c-.3-.3-.45-.68-.45-1.12 0-.55.2-.98.61-1.3.42-.31.99-.47 1.7-.47.72 0 1.3.16 1.72.47.44.33.7.77.75 1.35h-1.15a.94.94 0 0 0-.42-.66 1.56 1.56 0 0 0-.93-.24c-.37 0-.65.07-.85.2-.2.13-.29.31-.29.54 0 .2.07.36.22.48.15.13.4.24.74.33l1.01.25c.58.14 1.02.38 1.32.7.3.33.44.72.44 1.17 0 .55-.21.98-.64 1.3-.43.3-1.02.47-1.8.47Z"/><g clip-path="url(#clip0_1354_1380)"><path fill="#fff" d="M61.6 23.25a16 16 0 0 0-12.33-12.32 22.35 22.35 0 0 0-4.34-.34v4.57c1.85.03 2.99.12 3.97.38a11.43 11.43 0 0 1 8.08 8.08c.18.68.28 1.43.33 2.45h-1.54a10.24 10.24 0 0 0-.52-2.88 9.9 9.9 0 0 0-5.92-5.92c-1.15-.42-2.48-.54-4.4-.58v4.57c.48.01.9.03 1.3.07.96.07 1.6.23 2.13.5 1 .5 1.82 1.32 2.33 2.33.27.52.42 1.16.5 2.13l.07 1.3h1.52c-.01-.52-.03-1-.07-1.42a7.07 7.07 0 0 0-.66-2.7 6.86 6.86 0 0 0-3-3 6.93 6.93 0 0 0-2.6-.65v-1.54c1 .06 1.72.19 2.36.42a8.38 8.38 0 0 1 5 5.01c.35.93.46 2.04.5 3.88h4.57a18 18 0 0 0-.43-4.36 12.95 12.95 0 0 0-9.16-9.16c-.81-.22-1.7-.33-2.84-.39v-1.53c1.03.04 1.8.12 2.5.27A14.48 14.48 0 0 1 60.1 23.57c.22 1 .29 2.16.3 4.02h1.53c-.02-1.9-.1-3.2-.34-4.34ZM49.27 50.35a16 16 0 0 0 12.32-12.32c.25-1.14.32-2.44.34-4.34h-4.57c-.03 1.85-.12 3-.38 3.97a11.43 11.43 0 0 1-8.08 8.08c-.68.19-1.43.28-2.45.33v-1.54c1.15-.07 2.06-.22 2.88-.52a9.9 9.9 0 0 0 5.92-5.92c.42-1.15.54-2.48.58-4.4l-1.53-.02v.02h-3.04l-.07 1.3a5.59 5.59 0 0 1-.5 2.14 5.33 5.33 0 0 1-2.33 2.33c-.53.26-1.17.42-2.14.5-.38.03-.81.05-1.3.06v1.52c.53 0 1-.03 1.43-.06a7.07 7.07 0 0 0 2.7-.67 6.86 6.86 0 0 0 3-3c.38-.75.56-1.58.65-2.6h1.54c-.06 1-.19 1.72-.42 2.36a8.38 8.38 0 0 1-5.01 5.01c-.93.34-2.04.45-3.88.49v4.57a18 18 0 0 0 4.36-.42 12.95 12.95 0 0 0 9.16-9.16c.22-.82.33-1.71.39-2.85h1.53c-.04 1.03-.12 1.8-.27 2.5a14.48 14.48 0 0 1-11.15 11.15c-1 .22-2.16.29-4.02.3v1.53c1.9-.02 3.2-.1 4.34-.34ZM34.49 50.35a16 16 0 0 1-12.32-12.32 22.35 22.35 0 0 1-.34-4.34h1.52c.02 1.86.1 3.02.3 4.02a14.48 14.48 0 0 0 11.16 11.15c.7.15 1.47.23 2.5.27V47.6a13.42 13.42 0 0 1-2.85-.38 12.95 12.95 0 0 1-9.16-9.16 18 18 0 0 1-.43-4.37h4.58c.04 1.84.15 2.95.49 3.88a8.38 8.38 0 0 0 5 5.01c.65.23 1.37.36 2.37.43v-1.54a6.93 6.93 0 0 1-2.61-.66 6.86 6.86 0 0 1-3-3 7.07 7.07 0 0 1-.66-2.7l-.07-1.42h1.53c.01.48.03.91.06 1.3.08.97.23 1.6.5 2.14.51 1 1.33 1.82 2.33 2.33.53.26 1.17.42 2.14.5.39.03.82.05 1.3.06v4.58c-1.92-.05-3.25-.17-4.4-.59a9.9 9.9 0 0 1-5.92-5.92c-.3-.82-.45-1.73-.52-2.88h-1.54c.05 1.02.14 1.77.33 2.45a11.43 11.43 0 0 0 8.08 8.08c.98.27 2.12.35 3.97.38v4.57c-1.9-.02-3.2-.1-4.34-.34ZM34.49 10.93a16 16 0 0 0-12.32 12.32 22.35 22.35 0 0 0-.34 4.34h4.57c.03-1.85.11-2.99.38-3.97a11.43 11.43 0 0 1 8.08-8.08c.68-.18 1.43-.28 2.45-.33v1.54c-1.15.07-2.07.22-2.88.52a9.9 9.9 0 0 0-5.92 5.92c-.42 1.15-.55 2.48-.58 4.4h4.57c.01-.48.03-.9.06-1.3.08-.97.23-1.6.5-2.13.51-1 1.33-1.82 2.33-2.33a5.59 5.59 0 0 1 2.14-.5c.39-.04.82-.06 1.3-.07v-1.52c-.52.01-1 .03-1.43.07a7.07 7.07 0 0 0-2.7.66 6.86 6.86 0 0 0-3 3 6.93 6.93 0 0 0-.65 2.6h-1.54c.07-1 .2-1.72.43-2.36a8.38 8.38 0 0 1 5-5c.94-.35 2.04-.46 3.9-.5l-.01-4.57a18 18 0 0 0-4.37.43 12.95 12.95 0 0 0-9.16 9.16c-.21.8-.32 1.7-.38 2.84h-1.53c.04-1.03.12-1.8.27-2.5A14.48 14.48 0 0 1 34.8 12.42c1-.22 2.16-.29 4.02-.3v-1.53c-1.9.02-3.2.1-4.34.34Z"/><rect width="6.1" height="6.1" x="38.83" y="27.59" stroke="#fff" stroke-width="1.52" rx="2.03"/></g><defs><clipPath id="clip0_1354_1380"><path fill="#fff" d="M21.56 10.32H62.2v40.63H21.56z"/></clipPath></defs></svg>