<?xml version="1.0" encoding="UTF-8"?> <svg xmlns="http://www.w3.org/2000/svg" fill="none" viewBox="0 0 81 80"><path fill="#97C0FF" d="M52.62 34.9a2.5 2.5 0 1 0-3.9-3.13L42 40.13A37.48 37.48 0 0 1 39 43.6c-.34.32-.56.46-.68.52-.1.05-.13.05-.15.05-.02 0-.05 0-.15-.05-.12-.06-.34-.2-.68-.52a37.5 37.5 0 0 1-2.98-3.47l-1.74-2.16a2.5 2.5 0 0 0-3.9 3.14l1.85 2.3a39.4 39.4 0 0 0 3.36 3.84c1.09 1.02 2.45 1.92 4.24 1.92 1.8 0 3.15-.9 4.25-1.92a39.41 39.41 0 0 0 3.35-3.85l6.85-8.5Z"></path><path fill="#8d0218" fill-rule="evenodd" d="M32.55 4.17a9.3 9.3 0 0 0-9.3 9.3 4.3 4.3 0 0 1-4.31 4.3H17.9c-5.26 0-9.94 4.07-9.65 9.72.34 6.7 1.83 17.15 7.26 27.05a47.55 47.55 0 0 0 5.74 8.03l.17.19c3.16 3.65 5.8 6.7 8.62 8.77a16.9 16.9 0 0 0 10.62 3.34 16.9 16.9 0 0 0 10.62-3.34c2.83-2.08 5.46-5.12 8.62-8.77l.17-.2a47.55 47.55 0 0 0 5.75-8.02c5.6-10.23 7-21.78 7.28-28.99.22-5.62-4.43-9.72-9.71-9.72h-1.97a3.33 3.33 0 0 1-3.33-3.33c0-4.6-3.73-8.33-8.33-8.33H32.55Zm-4.3 9.3a4.3 4.3 0 0 1 4.3-4.3h17.22c1.84 0 3.33 1.49 3.33 3.33 0 4.6 3.73 8.33 8.33 8.33h1.97c2.8 0 4.81 2.08 4.72 4.53-.27 6.88-1.61 17.54-6.68 26.77-1.3 2.36-3.09 4.8-5.14 7.17-3.37 3.89-5.64 6.5-7.97 8.2-2.15 1.58-4.36 2.37-7.66 2.37s-5.5-.8-7.66-2.38c-2.32-1.7-4.6-4.3-7.96-8.2a42.63 42.63 0 0 1-5.15-7.16c-4.93-8.98-6.33-18.59-6.65-24.9-.12-2.39 1.86-4.45 4.66-4.45h1.03a9.3 9.3 0 0 0 9.3-9.3Z" clip-rule="evenodd"></path></svg> 