<?xml version="1.0" encoding="UTF-8"?> <svg xmlns="http://www.w3.org/2000/svg" fill="none" viewBox="0 0 233 126"><path fill="#191921" d="M138.83 7.04c-13.81.52-26.97 6-37.02 15.43A56.62 56.62 0 0 0 84.15 58.3h3.74a52.55 52.55 0 0 1 15.21-31.82 39.53 39.53 0 0 0 6.27 4.7c-4.13 7.94-6.66 17.25-7.35 27.12h.92c.71-9.9 3.3-19.03 7.23-26.65a56.48 56.48 0 0 0 17.5 6.35 186.68 186.68 0 0 0-1.7 25.4h-5.75v.91h5.76c.02 9 .6 17.67 1.7 25.4a56.32 56.32 0 0 0-17.5 6.35 67.19 67.19 0 0 1-6.65-21.17h-.93a67.67 67.67 0 0 0 6.77 21.65 39.52 39.52 0 0 0-6.27 4.7 52.55 52.55 0 0 1-15.32-32.91h-3.73a56.63 56.63 0 0 0 19.21 37.52 57.32 57.32 0 0 0 78.62-3.14A56.57 56.57 0 0 0 198 63.77c0-7.74-1.59-15.4-4.68-22.5a56.84 56.84 0 0 0-21.92-25.5 57.36 57.36 0 0 0-32.58-8.73Zm2.14 3.69c1.05 0 2.1.03 3.15.1 2.48 2.29 4.8 7.22 6.67 14.26 1.03 3.98 1.84 8.02 2.43 12.09a69.5 69.5 0 0 1-24.51 0c.58-4.07 1.39-8.1 2.42-12.09 1.87-7.05 4.2-11.98 6.68-14.27 1.05-.06 2.1-.09 3.16-.09Zm-4.52.19c-2.34 2.64-4.47 7.38-6.2 13.94-1.04 4-1.86 8.06-2.45 12.15a55.16 55.16 0 0 1-17.2-6.25c4.66-8.66 11.1-15.29 18.54-18.73 2.4-.54 4.85-.91 7.31-1.11Zm9.03 0c2.48.2 4.94.58 7.37 1.13 7.41 3.47 13.83 10.07 18.47 18.7a55.27 55.27 0 0 1-17.2 6.26c-.59-4.09-1.4-8.14-2.44-12.15-1.74-6.56-3.86-11.29-6.2-13.94Zm-20.18 2.12a41.89 41.89 0 0 0-12.06 11.68 54.98 54.98 0 0 0-3.44 5.56 38.61 38.61 0 0 1-6.05-4.52 53.14 53.14 0 0 1 21.55-12.72Zm31.4.04a53.46 53.46 0 0 1 21.5 12.67 38.62 38.62 0 0 1-6.07 4.53 54.97 54.97 0 0 0-3.44-5.56 41.86 41.86 0 0 0-11.99-11.64Zm22.14 13.4a53.02 53.02 0 0 1 11.13 16.33 52.38 52.38 0 0 1 4.36 20.59H180.1c-.07-11.74-2.7-22.92-7.54-32.22a39.53 39.53 0 0 0 6.28-4.7Zm-7.09 5.17c4.62 8.91 7.37 19.88 7.43 31.75h-23.22c0-8.5-.56-16.98-1.7-25.4a56.44 56.44 0 0 0 17.5-6.35Zm-43.17 6.52c4.09.72 8.23 1.08 12.39 1.08 4.15 0 8.3-.36 12.38-1.08a186.59 186.59 0 0 1 1.7 25.23h-8.01c-.19.32-.4.62-.63.91h8.62c.01 8.44-.55 16.87-1.68 25.24a71.04 71.04 0 0 0-24.77 0c-1.14-8.37-1.7-16.8-1.69-25.24h8.8a6.7 6.7 0 0 1-.62-.91h-8.18c.02-8.94.6-17.55 1.69-25.23Zm-76.2 7.62c-4.35.04-8.53 1.7-11.72 4.62A17.53 17.53 0 0 0 52.5 80.83c8.55 0 15.7-6.18 17.2-14.33h30.15v6.56h6.43V66.5h5.68v9.66h6.42V60.12H69.71a17.43 17.43 0 0 0-6.05-10.3 17.63 17.63 0 0 0-11.28-4.03Zm-.4 6.51a11.2 11.2 0 0 1 10.7 6.71 11 11 0 0 1-2.37 12.16 11.17 11.17 0 0 1-7.87 3.24 11.17 11.17 0 0 1-7.67-3.22 11.03 11.03 0 0 1 7.21-18.89Zm88.9 2.62a5.11 5.11 0 0 0-4.8 3.85 5.03 5.03 0 0 0 2.46 5.63l-2.6 13.22h10.19l-2.6-13.22a5.08 5.08 0 0 0 2.2-6.39 5.04 5.04 0 0 0-4.84-3.09Zm15.07 9.4h23.23c-.06 11.86-2.82 22.83-7.43 31.74a56.25 56.25 0 0 0-17.5-6.34c1.15-8.42 1.71-16.91 1.7-25.4Zm24.15 0h14.23a52.52 52.52 0 0 1-15.49 36.91 39.52 39.52 0 0 0-6.28-4.7c4.84-9.3 7.47-20.47 7.54-32.22ZM142.61 89.3c3.56.08 7.1.43 10.6 1.05-.58 4.07-1.38 8.1-2.42 12.09-1.86 7.05-4.2 11.97-6.67 14.27-2.1.12-4.2.12-6.31 0-2.48-2.3-4.81-7.22-6.68-14.27a110.95 110.95 0 0 1-2.42-12.08 70.2 70.2 0 0 1 13.9-1.06Zm11.51 1.22a55.54 55.54 0 0 1 17.2 6.25c-4.65 8.67-11.1 15.29-18.54 18.74-2.4.53-4.84.9-7.3 1.1 2.34-2.65 4.47-7.38 6.2-13.94 1.04-4 1.86-8.05 2.45-12.15Zm-26.3 0c.58 4.09 1.4 8.15 2.44 12.15 1.72 6.57 3.85 11.3 6.19 13.94-2.46-.2-4.9-.57-7.3-1.1-7.45-3.45-13.89-10.07-18.54-18.73a55.22 55.22 0 0 1 17.2-6.26Zm-18.02 6.73a54.97 54.97 0 0 0 3.44 5.57c3.53 5 7.6 8.93 12.06 11.67a53.13 53.13 0 0 1-21.56-12.71c1.87-1.7 3.9-3.23 6.06-4.53Zm62.33 0a38.67 38.67 0 0 1 6.05 4.52 53.13 53.13 0 0 1-21.55 12.72 41.97 41.97 0 0 0 12.06-11.67 55.2 55.2 0 0 0 3.44-5.57Z"></path></svg> 