<?xml version="1.0" encoding="UTF-8"?> <svg xmlns="http://www.w3.org/2000/svg" fill="none" viewBox="0 0 81 80"><path fill="#191921" fill-rule="evenodd" d="M40.67 9.17c-6.95 0-13.35 2.29-18.5 6.16a2.5 2.5 0 0 1-3-4A35.83 35.83 0 0 1 76.5 40a2.5 2.5 0 1 1-5 0A30.83 30.83 0 0 0 40.67 9.17ZM7.33 37.5a2.5 2.5 0 0 1 2.5 2.5 30.83 30.83 0 0 0 49.33 24.67 2.5 2.5 0 0 1 3 4A35.83 35.83 0 0 1 4.84 40a2.5 2.5 0 0 1 2.5-2.5Z" clip-rule="evenodd"></path><path fill="#8d0218" fill-rule="evenodd" d="M11.55.83a2.5 2.5 0 0 1 2.49 2.51L14 9.96c-.01 2.7-.02 4.51.13 5.88.15 1.33.4 1.92.7 2.3a4.1 4.1 0 0 0 .74.74c.4.3.98.56 2.3.7 1.37.16 3.19.15 5.89.14l6.61-.03a2.5 2.5 0 0 1 .03 5l-6.77.03c-2.51.01-4.61.02-6.3-.16a9.18 9.18 0 0 1-4.82-1.73 9.11 9.11 0 0 1-1.63-1.62 9.18 9.18 0 0 1-1.72-4.82 60.5 60.5 0 0 1-.16-6.3v-.15l.03-6.62A2.5 2.5 0 0 1 11.55.83Zm51.63 59.32a58.43 58.43 0 0 0-5.89-.14l-6.62.03a2.5 2.5 0 1 1-.02-5l6.77-.03c2.51 0 4.61-.02 6.3.17 1.77.19 3.4.62 4.82 1.72a9.11 9.11 0 0 1 1.62 1.63 9.18 9.18 0 0 1 1.73 4.81c.18 1.7.17 3.79.16 6.3l-.03 6.77a2.5 2.5 0 1 1-5-.02l.03-6.62c.01-2.7.02-4.51-.13-5.88-.15-1.32-.4-1.92-.71-2.3a4.1 4.1 0 0 0-.73-.74c-.4-.3-.98-.56-2.3-.7Z" clip-rule="evenodd"></path></svg> 