<?xml version="1.0" encoding="UTF-8"?> <svg xmlns="http://www.w3.org/2000/svg" fill="none" viewBox="0 0 233 126"><path fill="#191921" d="M178.19 34.27h-10.22L153.2 79.86l-14.24-45.59h-17.2v56.92h10.21V46.68l14.78 44.51h12.9l14.78-44.78v44.78h10.22V34.27h-6.45Zm-74.45 56.92h12.36L90.84 34.27H79.01L54.83 91.19h12.9l5.37-13.76h25l5.64 13.76Zm-26.6-24 8.32-21.59 8.6 21.58H77.13Zm-30.91-8.64c-1.62-.81-2.7-.81-4.04-.81H18.81c-2.95-.27-3.5-.81-3.5-.81s-2.14-1.08-1.87-6.47c.27-5.4 5.37-6.2 5.37-6.2h33.06V34H12.09S0 38.86 0 52.61c0 11.87 8.33 14.57 10.48 15.11h23.65c5.38 0 5.65.81 5.65.81s2.15 1.08 1.88 6.47c0 5.4-5.38 6.2-5.38 6.2H2.15v10.53h39.78s12.09-4.86 12.09-18.61c.54-9.72-4.57-12.95-7.8-14.57Zm165.01 23.2s-7.52 0-7.52-11.33V34.27H193.5v36.15S191.35 91.19 209.9 92h22.84V81.75h-21.5Z"></path></svg> 