<?xml version="1.0" encoding="UTF-8"?> <svg xmlns="http://www.w3.org/2000/svg" fill="none" viewBox="0 0 80 80"><path fill="#8d0218" fill-rule="evenodd" d="M41.2 3.02c-.63-.03-1.26-.03-1.9 0-2.44.12-4.7.84-7.2 2-2.44 1.13-5.28 2.77-8.87 4.84l-.2.12c-3.6 2.07-6.43 3.71-8.64 5.26-2.26 1.6-4 3.19-5.33 5.24-.34.54-.66 1.08-.95 1.65a19.02 19.02 0 0 0-1.87 7.24C6 32.05 6 35.32 6 39.47v.24c0 4.14 0 7.42.24 10.1.25 2.76.76 5.06 1.87 7.24.3.56.61 1.11.95 1.64a19.02 19.02 0 0 0 5.33 5.24c2.2 1.55 5.04 3.2 8.64 5.26l.2.12a122.8 122.8 0 0 0 8.87 4.85 19.02 19.02 0 0 0 7.2 2c.64.02 1.27.02 1.9 0 2.45-.13 4.7-.84 7.2-2 2.45-1.14 5.29-2.77 8.88-4.85l.2-.12c3.6-2.07 6.43-3.7 8.63-5.26 2.27-1.59 4-3.18 5.33-5.24.35-.53.67-1.08.96-1.64a19.02 19.02 0 0 0 1.87-7.24c.24-2.68.24-5.96.24-10.1v-.24c0-4.14 0-7.42-.24-10.1a19.02 19.02 0 0 0-1.87-7.24c-.3-.57-.61-1.11-.96-1.65a19.02 19.02 0 0 0-5.33-5.24c-2.2-1.55-5.04-3.19-8.63-5.26l-.2-.12a122.75 122.75 0 0 0-8.87-4.84 19.02 19.02 0 0 0-7.2-2Zm-1.65 5c.47-.03.94-.03 1.4 0 1.58.08 3.18.53 5.35 1.53a120.6 120.6 0 0 1 8.58 4.7 120.6 120.6 0 0 1 8.36 5.08c1.96 1.38 3.15 2.54 4 3.86.26.4.5.8.7 1.22.73 1.4 1.14 3.01 1.35 5.4.22 2.43.22 5.49.22 9.78 0 4.29 0 7.34-.22 9.78-.21 2.38-.62 4-1.34 5.4-.22.41-.45.82-.7 1.21-.86 1.33-2.05 2.49-4.01 3.86-2 1.4-4.64 2.94-8.36 5.08a120.62 120.62 0 0 1-8.58 4.7c-2.17 1.01-3.77 1.46-5.34 1.54-.47.02-.94.02-1.4 0-1.58-.08-3.18-.53-5.36-1.54a120.64 120.64 0 0 1-8.57-4.7 120.66 120.66 0 0 1-8.36-5.08c-1.96-1.37-3.15-2.53-4-3.86-.26-.4-.5-.8-.7-1.21-.73-1.4-1.14-3.02-1.35-5.4a120.6 120.6 0 0 1-.22-9.78c0-4.3 0-7.35.22-9.78.21-2.39.62-4 1.34-5.4.22-.42.45-.82.7-1.22.86-1.32 2.05-2.48 4-3.86 2-1.4 4.65-2.93 8.37-5.08 3.71-2.14 6.36-3.67 8.57-4.7 2.18-1 3.78-1.45 5.35-1.53Z" clip-rule="evenodd"></path><path fill="#191921" fill-rule="evenodd" d="M58.5 27.64a2.5 2.5 0 0 1 .2 3.53L47.34 43.85a61.2 61.2 0 0 1-5.5 5.7C40.13 50.99 38.29 52 36 52s-4.13-1.01-5.84-2.45a61.2 61.2 0 0 1-5.5-5.7l-3.02-3.37a2.5 2.5 0 0 1 3.72-3.34l2.9 3.24c2.28 2.54 3.8 4.24 5.12 5.34C34.63 46.77 35.36 47 36 47c.64 0 1.37-.23 2.62-1.28 1.31-1.1 2.84-2.8 5.12-5.34l11.23-12.55a2.5 2.5 0 0 1 3.53-.2Z" clip-rule="evenodd"></path></svg> 