<?xml version="1.0" encoding="UTF-8"?> <svg xmlns="http://www.w3.org/2000/svg" fill="none" viewBox="0 0 81 80"><path fill="#97C0FF" d="M60.34 55.83a2.5 2.5 0 0 0 0-5h-20a2.5 2.5 0 0 0 0 5h20Z"></path><path fill="#ffdf2c" fill-rule="evenodd" d="M61.49 7.74a147.8 147.8 0 0 0-11.04-.24H30.22c-4.57 0-8.15 0-11.03.24-2.94.24-5.36.73-7.55 1.85a19.17 19.17 0 0 0-8.38 8.38c-1.12 2.19-1.61 4.61-1.85 7.55-.24 2.88-.24 6.46-.24 11.03v.23c0 4.57 0 8.16.24 11.04.24 2.93.73 5.35 1.85 7.55a19.17 19.17 0 0 0 8.38 8.37c2.19 1.12 4.61 1.62 7.55 1.86 2.88.23 6.46.23 11.03.23h7.62v6.12c-2.08.14-4.16.47-6.2.98l-5.24 1.31a2.5 2.5 0 1 0 1.21 4.85l5.25-1.31a30.83 30.83 0 0 1 14.95 0l5.25 1.31a2.5 2.5 0 1 0 1.22-4.85l-5.25-1.31a35.84 35.84 0 0 0-6.2-.98v-6.12h7.62c4.57 0 8.16 0 11.04-.23 2.93-.24 5.35-.74 7.55-1.86a19.17 19.17 0 0 0 8.37-8.37c1.12-2.2 1.62-4.62 1.86-7.55.23-2.88.23-6.47.23-11.04v-.23c0-4.57 0-8.15-.23-11.03-.24-2.94-.74-5.36-1.86-7.55a19.17 19.17 0 0 0-8.37-8.38c-2.2-1.12-4.62-1.61-7.55-1.85Zm-.41 52.87c-2.65.22-6.04.22-10.74.22h-20c-4.71 0-8.1 0-10.75-.22-2.62-.21-4.31-.62-5.68-1.32a14.17 14.17 0 0 1-6.2-6.2c-.7-1.36-1.1-3.06-1.32-5.68-.22-2.65-.22-6.03-.22-10.74s0-8.1.22-10.75c.21-2.62.63-4.31 1.32-5.68a14.17 14.17 0 0 1 6.2-6.2c1.37-.7 3.06-1.1 5.68-1.32 2.66-.22 6.04-.22 10.75-.22h20c4.7 0 8.09 0 10.74.22 2.62.21 4.32.63 5.69 1.32a14.17 14.17 0 0 1 6.19 6.2c.7 1.37 1.11 3.06 1.32 5.68.22 2.66.22 6.04.22 10.75 0 4.7 0 8.09-.22 10.74-.21 2.62-.62 4.32-1.32 5.69a14.17 14.17 0 0 1-6.2 6.19c-1.36.7-3.06 1.11-5.68 1.32Z" clip-rule="evenodd"></path><path fill="#97C0FF" d="M27 53.33a3.33 3.33 0 1 1-6.66 0 3.33 3.33 0 0 1 6.66 0Z"></path></svg> 