<?xml version="1.0" encoding="UTF-8"?> <svg xmlns="http://www.w3.org/2000/svg" fill="none" viewBox="0 0 80 80"><path fill="#191921" fill-rule="evenodd" d="M27.2 35.45a13.4 13.4 0 0 1 26.8 0c0 3.36-.36 8.74-1.4 14.87a2.5 2.5 0 1 0 4.94.83A99.62 99.62 0 0 0 59 35.45a18.4 18.4 0 0 0-36.8-.02c-.11 5.84-2.35 20.5-10.3 31.8a2.5 2.5 0 1 0 4.08 2.88c8.74-12.4 11.1-28.18 11.21-34.61v-.05Z" clip-rule="evenodd"></path><path fill="#8d0218" d="M55.6 60.27a2.5 2.5 0 0 0-4.85-1.26c-1.66 6.35-4.06 12.71-7.42 17.98a2.5 2.5 0 1 0 4.2 2.69c3.75-5.85 6.32-12.76 8.06-19.4Z"></path><path fill="#8d0218" fill-rule="evenodd" d="M40.6 5.83a29.48 29.48 0 0 0-17.54 5.75 2.5 2.5 0 1 1-2.97-4.02 34.62 34.62 0 0 1 55.13 27.89c.05 5.91-.82 20.7-4.8 32.9a2.5 2.5 0 0 1-4.75-1.55c3.75-11.5 4.6-25.7 4.55-31.32v-.03A29.62 29.62 0 0 0 40.6 5.83Zm-26.43 11.2a2.5 2.5 0 0 1 .88 3.42 29.47 29.47 0 0 0-4.07 15c0 3.73-1.08 13.08-5.4 21.85a2.5 2.5 0 0 1-4.49-2.21C5 47.14 5.98 38.59 5.98 35.45c0-6.4 1.73-12.39 4.76-17.53a2.5 2.5 0 0 1 3.43-.9Z" clip-rule="evenodd"></path><path fill="#8d0218" fill-rule="evenodd" d="M40.91 29.68a2.5 2.5 0 0 1 2.5 2.5c0 4.74-.67 12.63-2.68 21.15-2 8.5-5.39 17.82-10.9 25.25a2.5 2.5 0 0 1-4.02-2.98c4.96-6.67 8.13-15.26 10.05-23.42a93.26 93.26 0 0 0 2.55-20 2.5 2.5 0 0 1 2.5-2.5Z" clip-rule="evenodd"></path></svg> 