<?xml version="1.0" encoding="UTF-8"?> <svg xmlns="http://www.w3.org/2000/svg" fill="none" viewBox="0 0 81 80"><path fill="#191921" fill-rule="evenodd" d="M40.2 4.17a35.83 35.83 0 1 0 0 71.66 35.83 35.83 0 0 0 0-71.66ZM9.37 40a30.83 30.83 0 1 1 61.39 4.17c-3.43 0-6.24.05-8.59.25-2.84.25-5.2.75-7.34 1.84a19.17 19.17 0 0 0-8.37 8.37c-1.1 2.14-1.6 4.5-1.84 7.34-.2 2.35-.24 5.16-.25 8.59A30.83 30.83 0 0 1 9.37 40Zm53.23 9.4a90.3 90.3 0 0 1 7.05-.23 30.91 30.91 0 0 1-20.28 20.28c.02-2.88.07-5.15.23-7.05.22-2.51.63-4.16 1.31-5.5a14.17 14.17 0 0 1 6.2-6.19c1.33-.68 2.98-1.09 5.5-1.3Z" clip-rule="evenodd"></path></svg> 