<?xml version="1.0" encoding="UTF-8"?> <svg xmlns="http://www.w3.org/2000/svg" fill="none" viewBox="0 0 426 677"><path fill="#1A1A1A" d="M30.08 676.88A29.45 29.45 0 0 1 .63 647.43V30.2A29.45 29.45 0 0 1 30.08.75h365.67A29.45 29.45 0 0 1 425.2 30.2v617.23a29.45 29.45 0 0 1-29.45 29.45H30.08Z"></path><path fill="#EFF1F4" fill-rule="evenodd" d="M2.47 30.2v617.23a27.6 27.6 0 0 0 27.6 27.6h365.68a27.6 27.6 0 0 0 27.6-27.6V30.2a27.6 27.6 0 0 0-27.6-27.6H30.08A27.6 27.6 0 0 0 2.47 30.2ZM.63 647.43a29.45 29.45 0 0 0 29.45 29.45h365.67a29.45 29.45 0 0 0 29.45-29.45V30.2A29.45 29.45 0 0 0 395.75.75H30.08A29.45 29.45 0 0 0 .63 30.2v617.23Z" clip-rule="evenodd"></path><path fill="#EFF1F4" fill-rule="evenodd" d="M227.64 216.41a16.87 16.87 0 0 1-16.87-16.87V89.1c0-9.31 7.55-16.87 16.87-16.87h110.44c9.31 0 16.87 7.56 16.87 16.87v110.44c0 9.32-7.56 16.87-16.87 16.87H227.64Zm-15.03-16.87c0 8.3 6.73 15.03 15.03 15.03h110.44c8.3 0 15.03-6.73 15.03-15.03V89.1c0-8.3-6.73-15.03-15.03-15.03H227.64c-8.3 0-15.03 6.73-15.03 15.03v110.44Z" clip-rule="evenodd"></path><path fill="#1F1F1F" d="M247.27 192.18c-6.78 0-12.27-5.5-12.27-12.27v-71.17c0-6.78 5.5-12.27 12.27-12.27h71.17c6.78 0 12.27 5.49 12.27 12.27v71.17c0 6.78-5.5 12.27-12.27 12.27h-71.17Z"></path><path fill="#EFF1F4" fill-rule="evenodd" d="M247.27 193.1a13.2 13.2 0 0 1-13.19-13.2v-71.16c0-7.29 5.9-13.2 13.2-13.2h71.16c7.29 0 13.2 5.91 13.2 13.2v71.17c0 7.28-5.91 13.19-13.2 13.19h-71.17Zm-11.35-13.2c0 6.28 5.08 11.36 11.35 11.36h71.17c6.27 0 11.36-5.08 11.36-11.35v-71.17c0-6.27-5.09-11.35-11.36-11.35h-71.17a11.35 11.35 0 0 0-11.35 11.35v71.17Z" clip-rule="evenodd"></path><path fill="#1F1F1F" d="M133.15 626.57a15.95 15.95 0 0 1-15.95-15.96v-66.26c0-8.8 7.14-15.95 15.95-15.95H185.92c8.8 0 15.95 7.14 15.95 15.95v66.26c0 8.81-7.14 15.96-15.95 15.96H133.16Z"></path><path fill="#EFF1F4" fill-rule="evenodd" d="M133.15 627.49a16.87 16.87 0 0 1-16.87-16.88v-66.26c0-9.32 7.55-16.87 16.87-16.87h52.77c9.32 0 16.87 7.55 16.87 16.87v66.26c0 9.32-7.55 16.88-16.87 16.88h-52.77Zm-.3-1.85V578.4h-14.73v32.21c0 8.2 6.57 14.87 14.73 15.03Zm-14.73-49.08h14.73v-47.24a15.03 15.03 0 0 0-14.73 15.03v32.21Zm16.57-47.24v41.74c2.7-5.9 8.65-9.84 15.34-9.84v-31.9h-15.34Zm17.18 0v32.13l3.54 1.01c2.7.77 5.56.77 8.26 0l3.54-1.01v-32.13h-15.34Zm17.18 0v31.9c6.69 0 12.63 3.94 15.33 9.84v-41.74h-15.33Zm17.17 0v47.24h14.73v-32.2c0-8.2-6.56-14.87-14.72-15.04Zm14.73 49.08h-14.72v47.24a15.03 15.03 0 0 0 14.72-15.03v-32.2Zm-16.57 47.25V583.9a16.88 16.88 0 0 1-15.33 9.84v31.9h15.33Zm-17.17 0v-32.13l-3.54-1.02c-2.7-.77-5.56-.77-8.26 0l-3.54 1.01v32.14h15.34Zm-17.18 0v-31.9a16.88 16.88 0 0 1-15.34-9.85v41.75h15.34Zm-15.32-48.17.7 2.9a15.03 15.03 0 0 0 14.62 11.52v-28.84c-6.95 0-13 4.77-14.62 11.53l-.7 2.9Zm17.16-14.12v28.24l3.03-.87c3.03-.86 6.24-.86 9.27 0l3.04.87v-28.24l-3.04.87c-3.03.87-6.24.87-9.27 0l-3.03-.87Zm17.18-.3v28.84c6.95 0 13-4.76 14.61-11.52l.7-2.9-.7-2.9a15.03 15.03 0 0 0-14.61-11.52Z" clip-rule="evenodd"></path><path fill="#DCDBDD" d="M77.45 177.61 93.4 166.3v6.66l-11.82 8.46 3.2 2.93h8.62V190H66.46v-5.66h11.19l-11.2-10.26v-6.6l11 10.13Z"></path><path fill="#DCDBDD" fill-rule="evenodd" d="M57.63 166.22a26.73 26.73 0 1 0 18.76-11.9l-.66-4.78A31.54 31.54 0 1 1 53.6 163.6l4.04 2.63Z" clip-rule="evenodd"></path><path fill="#DCDBDD" fill-rule="evenodd" d="M60.54 156.26a3.73 3.73 0 1 0 7.45 0 3.73 3.73 0 0 0-7.45 0Zm3.72 8.55a8.55 8.55 0 1 1 0-17.1 8.55 8.55 0 0 1 0 17.1Z" clip-rule="evenodd"></path><path fill="#DCDBDD" d="M127.67 173.19v-5.53h26.94v5.53l-18.32 13.05 18.32.17v5.5h-26.94v-5.5l18.18-13.22h-18.18ZM127.67 199.66h26.94v5.53h-26.94v-5.53ZM154.61 220.08v6.4l-26.94 8.88v-5.66l19.45-6.43-19.45-6.46v-5.66l26.94 8.93ZM149.22 249.38v-13.16h5.4v19.12h-26.95v-5.96h21.55ZM127.67 282.35V263.1h5.4v13.42h4.79l.07-11.19h5.36l-.03 11.2h6V263.1h5.35v19.25h-26.94ZM138.66 299.54l15.95-11.33v6.66l-11.82 8.46 3.2 2.93h8.62v5.67h-26.94v-5.67h11.19l-11.2-10.25v-6.6l11 10.13ZM126.57 60.84c0-7.7 5.36-12.7 14.02-12.7 10.32 0 14.02 6.57 14.02 12.7 0 7.72-5.5 12.69-14.02 12.69-4.36 0-7.96-1.3-10.5-3.73a12.36 12.36 0 0 1-3.52-8.96Zm25.31 0c0-6.23-4.06-9.93-11.3-9.93-8.39 0-11.28 5.06-11.28 9.93 0 4.9 3.2 9.96 11.29 9.96 8.33 0 11.29-5.07 11.29-9.96ZM142.29 86.26l11.79-6.56v3.2l-11.8 6.49v-3.13Zm-7.6-6c5.66 0 7.3 4 7.6 6V97.45h11.79v2.77h-26.95l-.03-11.13c0-3.4 1.93-8.83 7.6-8.83Zm4.87 8.3c0-3.7-1.44-5.56-4.87-5.56-2.9 0-4.8 2.66-4.8 5.56v8.89h9.67v-8.9ZM129.73 123.91h8.56v-12.96h2.63l-.07 12.96h10.6v-15.39h2.6v18.09H127.1v-18.09h2.63v15.4ZM151.44 155.6l-21.71-18.45v18.45h-2.63v-22.05h2.63L151.45 152v-18.45h2.6v22.05h-2.6Z"></path><path fill="#fff" d="M255.57 158.39a.73.73 0 0 0 1.19-.56c0-.2-.1-.41-.27-.55a41.12 41.12 0 0 1-9.44-11.05c-.3-.52-.6-1.06-.85-1.61a.73.73 0 0 0-.96-.35.72.72 0 0 0-.36.95c.28.6.58 1.18.91 1.74a42.57 42.57 0 0 0 9.78 11.43ZM262.13 164.92a.73.73 0 0 1-1.07.63 45.98 45.98 0 0 1-14.58-12.4.72.72 0 0 1 .14-1 .73.73 0 0 1 1.02.13 44.53 44.53 0 0 0 14.11 12c.24.14.38.38.38.64ZM262.13 168.18a.73.73 0 0 1-1.05.65 49.8 49.8 0 0 1-3.28-1.8.72.72 0 0 1-.25-1 .73.73 0 0 1 1-.24c1.03.62 2.1 1.2 3.18 1.75.25.13.4.38.4.64ZM281.68 116.28a.73.73 0 0 0-1.03.07c-.26.3-.23.75.07 1.02 1.08.94 2.1 1.98 3 3.1.48.59 1.29.82 2.01.59.52-.17 1.07-.35 1.65-.52a.72.72 0 0 0 .48-.9.73.73 0 0 0-.91-.48l-1.66.52a.4.4 0 0 1-.44-.12 26.74 26.74 0 0 0-3.17-3.28ZM284.81 117.31a.72.72 0 0 1 .05-1.02.73.73 0 0 1 1.02.04l.1.1.98-.3a.73.73 0 0 1 .93.7c0 .3-.2.6-.52.69a80 80 0 0 0-1.4.43.73.73 0 0 1-.77-.21l-.39-.43ZM289.85 118.32a51.5 51.5 0 0 1 7.5-1.43.73.73 0 0 1 .8.73c0 .36-.27.67-.64.71l-.7.09c-2.13.27-4.28.7-6.59 1.3a.72.72 0 1 1-.37-1.4Z"></path><path fill="#fff" d="M284.2 123.07a.4.4 0 0 1-.46-.15 23.63 23.63 0 0 0-7-6.7.73.73 0 0 0-1 .22.72.72 0 0 0 .23 1 22.2 22.2 0 0 1 6.58 6.3c.46.67 1.3.96 2.1.71l.98-.32c5.02-1.64 11.66-3.47 18.52-3.1.4.03.74-.28.76-.67v-.05c0-.38-.3-.7-.68-.72-7.1-.39-13.91 1.49-19.05 3.17l-.98.31ZM277.97 170.25a.72.72 0 0 0-.62-.82 46.31 46.31 0 0 1-13.58-4.1.72.72 0 1 0-.63 1.3 47.82 47.82 0 0 0 14 4.23c.4.06.77-.21.83-.61ZM298.8 167.74c.02.07.04.15.04.22 0 .3-.2.59-.5.69-5.22 1.66-11.03 3.11-18.22 2.54a.73.73 0 0 1-.66-.78c.03-.4.38-.69.78-.66 6.94.56 12.58-.86 17.65-2.48.38-.12.79.09.91.47ZM291.28 124.68c.1.39.5.62.88.52 5.97-1.5 11.37-1.71 16.5-.67a.73.73 0 0 0 .87-.7.72.72 0 0 0-.58-.71c-5.35-1.1-10.96-.87-17.14.68-.4.1-.63.5-.53.88Z"></path><path fill="#fff" d="M281.39 127.14a2.2 2.2 0 0 1-.47-.55 19.49 19.49 0 0 0-11.53-8.94.72.72 0 1 1 .4-1.39c5.24 1.5 9.64 4.9 12.39 9.6l.17.2c.31.27.8.36 1.26.22a96.68 96.68 0 0 0 4.04-1.28.73.73 0 0 1 .95.68c0 .3-.2.6-.5.7l-1.56.5c-1.01.33-1.86.6-2.51.79-.94.27-1.95.07-2.64-.53ZM267.29 164.2a.73.73 0 0 1-1.01.66 44.16 44.16 0 0 1-8.85-5.03.72.72 0 0 1-.16-1.01.73.73 0 0 1 1.02-.15 42.77 42.77 0 0 0 8.56 4.87c.27.12.44.38.44.66ZM269.29 166.02c3.56 1.22 7.29 2 11.07 2.3 6.62.52 12.16-.87 16.7-2.3a.72.72 0 1 0-.43-1.38c-4.64 1.46-9.8 2.74-16.16 2.23a43.81 43.81 0 0 1-10.7-2.22.72.72 0 1 0-.47 1.37ZM299.9 165.26c.35-.2.8-.08 1 .27l.55.96c.2.38.43.75.66 1.1a.72.72 0 0 1-.22 1 .73.73 0 0 1-1-.21c-.25-.38-.49-.78-.71-1.19l-.54-.94a.72.72 0 0 1 .26-.99ZM289.9 128.08c.12.38.52.6.9.49 5.22-1.51 13.13-3.15 21.65.06a.73.73 0 0 0 .98-.67c0-.3-.18-.57-.47-.68-8.92-3.36-17.15-1.67-22.56-.1a.72.72 0 0 0-.5.9Z"></path><path fill="#fff" d="M279.78 129.56a5.16 5.16 0 0 1-1.36-1.52 16.57 16.57 0 0 0-10.17-7.7 16.65 16.65 0 0 0-7.1-.32.72.72 0 1 1-.25-1.42c2.57-.44 5.17-.33 7.72.34a18.02 18.02 0 0 1 11.05 8.37c.24.42.57.78.99 1.1a4.34 4.34 0 0 0 3.85.62c.65-.19 1.48-.45 2.49-.78a.73.73 0 0 1 .95.69c0 .3-.2.58-.5.68-1.01.33-1.87.6-2.53.8a5.8 5.8 0 0 1-5.14-.86ZM272.55 164a.72.72 0 1 0 .4-1.38 39.02 39.02 0 0 1-23.4-17.84 16.56 16.56 0 0 1-2.27-8.37.72.72 0 0 0-1.45 0 18 18 0 0 0 2.47 9.1 40.46 40.46 0 0 0 24.25 18.5ZM298.18 162.1l-.07-.22.22.69-.15-.47ZM297.88 161.2l.3.9.15.47c-4.68 1.53-10.51 3.44-17.74 2.86-1.46-.11-2.93-.3-4.36-.57a.72.72 0 1 1 .26-1.42c1.39.25 2.8.44 4.21.55 6.94.55 12.62-1.3 17.18-2.8ZM301.67 162.6c.35-.2.8-.1 1 .24.42.68.86 1.43 1.31 2.25.23.4.48.81.74 1.2a.72.72 0 0 1-.2 1 .73.73 0 0 1-1-.2c-.29-.41-.56-.85-.8-1.3-.45-.8-.88-1.54-1.29-2.2a.72.72 0 0 1 .24-.99Z"></path><path fill="#fff" d="M287.9 131c-.65.2-1.63.53-2.53.8-2.2.64-4.57.27-6.34-1a6.65 6.65 0 0 1-1.87-2.03 15.1 15.1 0 0 0-6.64-6.08.73.73 0 0 0-.97.35c-.17.36-.02.79.35.96a13.66 13.66 0 0 1 6 5.5c.57.96 1.33 1.8 2.28 2.47a8.8 8.8 0 0 0 7.6 1.21c.93-.27 1.92-.6 2.57-.81 5.41-1.77 14.46-4.73 24.07-.63.84.36 1.68.76 2.48 1.2a.73.73 0 0 0 1.07-.64c0-.26-.13-.5-.38-.64-.84-.45-1.71-.87-2.6-1.25-10.11-4.31-19.49-1.25-25.09.58ZM267.5 123.13a13.8 13.8 0 0 0-10.47 1.41.73.73 0 0 1-.98-.25.72.72 0 0 1 .26-1 15.24 15.24 0 0 1 11.56-1.55.72.72 0 1 1-.37 1.4ZM250.81 144.05a36.75 36.75 0 0 0 5.93 7.6.73.73 0 0 0 1.24-.5.72.72 0 0 0-.22-.52 35.43 35.43 0 0 1-5.7-7.31 13.69 13.69 0 0 1 2.66-17.08c.3-.27.32-.73.05-1.02a.73.73 0 0 0-1.03-.05 15.13 15.13 0 0 0-2.93 18.87ZM303.3 158.63a45.05 45.05 0 0 1 3.22 5.06c.2.35.42.7.64 1.04a.72.72 0 0 1-.19 1 .73.73 0 0 1-1-.2c-.26-.36-.5-.75-.72-1.14a43.56 43.56 0 0 0-3.1-4.87 1.75 1.75 0 0 0-1.86-.6c-1.02.3-2.17.68-2.86.9-4.44 1.46-9.97 3.26-16.61 2.73a38.58 38.58 0 0 1-21.7-8.74.72.72 0 0 1-.1-1.02.73.73 0 0 1 1.02-.1 37.13 37.13 0 0 0 20.9 8.42c6.35.5 11.71-1.25 16.02-2.66h.01c.7-.23 1.87-.6 2.92-.91a3.2 3.2 0 0 1 3.41 1.09Z"></path><path fill="#fff" d="M304.2 131.9c-.05.4.24.75.64.8a23 23 0 0 1 6.44 1.7 26.5 26.5 0 0 1 4.71 2.6.73.73 0 0 0 1.14-.6c0-.22-.1-.44-.3-.59a28 28 0 0 0-4.98-2.74 24.47 24.47 0 0 0-6.85-1.8.73.73 0 0 0-.8.63ZM273.66 129.96a.73.73 0 0 1 1 .26h-.01c1.65 2.82 4.78 4.68 8.37 4.96 1.1.09 3.7-.76 5.79-1.44 3.1-1.02 6.96-2.28 11.4-2.58a.73.73 0 0 1 .78.73c0 .37-.3.7-.67.72-4.26.28-8.03 1.51-11.06 2.5-2.44.8-4.96 1.62-6.36 1.51-4.06-.32-7.61-2.44-9.5-5.67a.72.72 0 0 1 .26-.99ZM271.6 127.64a.72.72 0 0 0-.14-1.01 12.32 12.32 0 0 0-18.14 15.96 34.43 34.43 0 0 0 12.89 12.59c.35.2.79.07.99-.28a.72.72 0 0 0-.28-.98 32.99 32.99 0 0 1-12.35-12.06 10.8 10.8 0 0 1 3.93-14.82 10.87 10.87 0 0 1 12.08.74c.32.24.78.18 1.02-.14ZM296.06 155.7c3.87-1.26 5.75-1.76 6.64-1.38 2.24.95 4.58 4.76 6.36 7.96.12.22.25.43.39.64a.72.72 0 0 1-.22 1 .73.73 0 0 1-1-.22c-.16-.23-.3-.48-.44-.72-.9-1.6-3.6-6.45-5.66-7.33-.66-.19-3.98.9-5.6 1.42h-.01c-4.2 1.38-9.4 3.08-15.47 2.6a36.28 36.28 0 0 1-11.78-2.96.72.72 0 0 1-.37-.96c.16-.36.6-.53.96-.36a34.8 34.8 0 0 0 11.3 2.84c5.77.46 10.83-1.2 14.9-2.52Z"></path><path fill="#fff" d="M289.71 136.49c-2.69.88-5.23 1.7-6.92 1.57a14.41 14.41 0 0 1-4.93-1.27.73.73 0 0 0-.96.35c-.17.36-.01.79.35.96 1.7.78 3.52 1.25 5.42 1.4 1.98.16 4.66-.72 7.5-1.64 5.22-1.7 12.37-4.04 19.96-.8 2.6 1.1 4.91 2.62 7.09 4.66a.73.73 0 0 0 1.22-.52c0-.2-.07-.39-.23-.53a25.41 25.41 0 0 0-7.5-4.95c-8.1-3.45-15.56-1.01-21 .77ZM259.23 128.3a9.42 9.42 0 0 1 7.16-.98 9.37 9.37 0 0 1 5.75 4.36 12.31 12.31 0 0 0 2.61 3.12.72.72 0 1 1-.95 1.09c-1.17-1-2.15-2.18-2.92-3.48a7.93 7.93 0 0 0-4.86-3.69 7.96 7.96 0 0 0-8.94 11.69c.2.34.09.79-.26.99a.73.73 0 0 1-.99-.26 9.36 9.36 0 0 1 3.4-12.85ZM259.59 144.03a.73.73 0 0 0-1.02-.1.72.72 0 0 0-.11 1 32.7 32.7 0 0 0 22.82 11.86c.96.08 1.95.1 2.94.05.39-.02.7-.34.7-.72v-.03a.72.72 0 0 0-.76-.7c-.94.05-1.87.03-2.76-.04a31.25 31.25 0 0 1-21.81-11.32ZM295.15 152.96c3.72-1.21 6.64-2.17 8.7-1.3 3.02 1.3 5.61 5.38 7.75 9.22.06.11.1.23.1.35 0 .25-.14.5-.38.63-.35.2-.8.07-.99-.28-2.02-3.62-4.44-7.47-7.06-8.59-1.54-.66-4.24.23-7.66 1.34l-.03.01c-2.22.73-4.74 1.55-7.51 2.05a.72.72 0 0 1-.85-.58.72.72 0 0 1 .59-.84c2.68-.48 5.16-1.3 7.34-2.01Z"></path><path fill="#fff" d="M290.62 139.23c-1.87.61-3.63 1.19-5.25 1.5a.72.72 0 1 0 .27 1.42c1.72-.33 3.52-.92 5.43-1.55 5.05-1.64 11.33-3.7 17.92-.9 3 1.28 5.64 3.27 8.11 6.08.27.3.73.33 1.03.07a.72.72 0 0 0 .07-1.02 23.85 23.85 0 0 0-8.64-6.45c-7.09-3.02-13.66-.87-18.94.85ZM282.56 140.94c.38.03.66.35.66.72v.06c-.03.4-.38.7-.78.66-5.96-.47-11.21-3.66-14.06-8.52a5.08 5.08 0 0 0-8.78 5.1c.7 1.2 1.52 2.37 2.42 3.46.25.3.2.76-.1 1.02a.73.73 0 0 1-1.03-.1 28 28 0 0 1-2.55-3.66 6.48 6.48 0 0 1 2.36-8.9 6.51 6.51 0 0 1 8.93 2.35c2.6 4.46 7.44 7.38 12.93 7.81ZM306.13 151.32a.73.73 0 0 0 1.16-.58c0-.22-.1-.44-.3-.58-.66-.48-1.33-.87-2-1.15-3.06-1.3-6.45-.2-10.74 1.2-3.76 1.23-8.01 2.62-12.62 2.26a28.7 28.7 0 0 1-16.7-7.03.73.73 0 0 0-1.03.06c-.26.3-.23.76.06 1.02a30.15 30.15 0 0 0 17.55 7.39c4.9.39 9.3-1.05 13.2-2.32 4-1.31 7.15-2.34 9.7-1.25a8.8 8.8 0 0 1 1.72.98ZM307.87 152.86a.72.72 0 0 1 .02-1.02.73.73 0 0 1 1.03.03 33.15 33.15 0 0 1 4.6 6.52c.07.11.1.23.1.36a.72.72 0 0 1-1.36.35c-1.64-2.85-3-4.77-4.4-6.24Z"></path><path fill="#fff" d="M308.42 141.04c-4.9-2.1-9.67-1.2-13.28-.19a.72.72 0 1 0 .4 1.4c3.58-1.01 7.85-1.78 12.3.12 3.18 1.35 6.01 3.73 8.67 7.3a.73.73 0 0 0 1.3-.44c0-.15-.04-.3-.14-.43-2.8-3.77-5.84-6.3-9.25-7.76ZM291.52 141.98l.46 1.37c-3.4 1.12-6.63 2.17-9.77 1.92-6.9-.55-13.02-4.27-16.34-9.95a2.17 2.17 0 0 0-2.98-.78 2.16 2.16 0 0 0-.79 2.96 24.9 24.9 0 0 0 15.4 11.37.72.72 0 1 1-.36 1.4 26.36 26.36 0 0 1-16.3-12.04 3.6 3.6 0 0 1 4.07-5.32 3.6 3.6 0 0 1 2.21 1.68c3.09 5.27 8.77 8.72 15.2 9.23 2.86.23 5.94-.78 9.2-1.84ZM302.38 146.26v-.02a.72.72 0 0 0-.75-.7c-2.63.08-5.37.98-8.28 1.93-3.68 1.2-7.47 2.44-11.49 2.12a.72.72 0 0 0-.78.66c-.03.4.27.74.66.78 4.32.34 8.25-.95 12.05-2.19 2.8-.92 5.46-1.78 7.88-1.85.4-.02.7-.34.7-.73ZM305.18 146.73a.73.73 0 0 1 .95-.38c4.19 1.78 7.06 5.87 9.1 9.23a.72.72 0 0 1-.24.99c-.34.2-.8.1-1-.24-2.86-4.72-5.46-7.39-8.43-8.65a.72.72 0 0 1-.38-.95Z"></path><path fill="#fff" d="M282.76 147.43a.72.72 0 0 0-.67-.72c-7.38-.6-13.91-4.58-17.48-10.67a.73.73 0 0 0-.99-.26.72.72 0 0 0-.26 1c3.8 6.49 10.76 10.74 18.62 11.37a.73.73 0 0 0 .78-.72ZM292.44 144.72c4.8-1.57 9.76-3.19 14.84-1.03 3.44 1.47 6.42 4.24 9.37 8.7a.73.73 0 0 1-1.21.8c-2.79-4.22-5.56-6.81-8.74-8.17-4.57-1.94-9.06-.48-13.8 1.08h-.01a50.25 50.25 0 0 1-6.26 1.75.72.72 0 1 1-.27-1.42 49.28 49.28 0 0 0 6.08-1.7Z"></path><path fill="#D9D9D9" d="M212.3 276.85a7.98 7.98 0 1 1 0 15.95 7.98 7.98 0 0 1 0-15.95Z"></path><path fill="#fff" fill-rule="evenodd" d="M140.4 485.01a1.73 1.73 0 1 0 1.72 3 40.9 40.9 0 0 1 40.9 0 1.73 1.73 0 0 0 1.73-3 44.36 44.36 0 0 0-44.36 0Zm3.4 9.35c-.49-.83-.2-1.88.62-2.36a36.3 36.3 0 0 1 36.3 0 1.73 1.73 0 0 1-1.73 3 32.85 32.85 0 0 0-32.84 0c-.83.47-1.88.19-2.36-.64Zm4.66 4.62a1.73 1.73 0 1 0 1.72 3 24.77 24.77 0 0 1 24.78 0 1.73 1.73 0 0 0 1.73-3 28.23 28.23 0 0 0-28.23 0Zm4.03 6.99a1.73 1.73 0 1 0 1.73 3 16.71 16.71 0 0 1 16.7 0 1.73 1.73 0 1 0 1.73-3 20.17 20.17 0 0 0-20.16 0Z" clip-rule="evenodd"></path></svg> 