<?xml version="1.0" encoding="UTF-8"?> <svg xmlns="http://www.w3.org/2000/svg" fill="none" viewBox="0 0 80 80"><path fill="#191921" fill-rule="evenodd" d="M40.7 4.18c-.46-.02-.93-.02-1.4 0-3.1.11-5.88 1.17-8.93 2.92-2.97 1.7-6.4 4.19-10.74 7.34l-.24.18c-4.34 3.15-7.77 5.64-10.3 7.94-2.61 2.36-4.47 4.69-5.54 7.6-.16.43-.3.88-.43 1.33-.85 2.97-.71 5.95.01 9.39.7 3.35 2.01 7.38 3.67 12.49l5.78 17.8a9.3 9.3 0 0 0 18.17-2.88v-9.17a3.89 3.89 0 0 1 3.88-3.89h10.74a3.89 3.89 0 0 1 3.89 3.9v9.16a9.3 9.3 0 0 0 18.16 2.87l5.78-17.8c1.66-5.1 2.97-9.13 3.67-12.48.72-3.44.86-6.42.01-9.4-.12-.44-.27-.89-.43-1.33-1.06-2.9-2.92-5.23-5.53-7.59-2.54-2.3-5.97-4.79-10.31-7.94l-.24-.18C56.03 11.3 52.6 8.8 49.63 7.1c-3.05-1.75-5.84-2.8-8.93-2.92Zm-1.22 5c.35-.02.7-.02 1.04 0 1.99.07 3.96.73 6.62 2.25 2.72 1.56 5.92 3.88 10.41 7.15 4.5 3.26 7.7 5.59 10.01 7.69 2.28 2.06 3.51 3.73 4.2 5.6l.32.99c.54 1.9.53 4-.1 7-.64 3.05-1.87 6.82-3.58 12.1l-5.74 17.66a4.3 4.3 0 0 1-8.4-1.33v-9.17c0-4.9-3.98-8.89-8.9-8.89H34.64a8.89 8.89 0 0 0-8.88 8.9v9.16a4.3 4.3 0 0 1-8.41 1.33L11.6 51.96c-1.71-5.28-2.93-9.05-3.57-12.1-.63-3-.65-5.1-.1-7 .1-.34.2-.66.32-.99.68-1.87 1.92-3.54 4.19-5.6 2.32-2.1 5.52-4.43 10-7.7 4.5-3.26 7.7-5.58 10.42-7.14 2.66-1.52 4.64-2.18 6.62-2.25Z" clip-rule="evenodd"></path></svg> 