<?xml version="1.0" encoding="UTF-8"?> <svg xmlns="http://www.w3.org/2000/svg" fill="none" viewBox="0 0 80 80"><path fill="#191921" fill-rule="evenodd" d="M57.66 46.15a72.34 72.34 0 0 1-6.59 23.56l-.19.37a56.29 56.29 0 0 1-3.2 5.78c-2.07.43-4.2.71-6.34.78.18-.22.37-.44.56-.7.9-1.11 1.87-2.58 2.87-4.33.69-1.18 1.4-2.5 2.09-3.93 2.62-5.46 5-12.51 5.93-20.38 1.68-.34 3.3-.72 4.87-1.15ZM38.68 76.64a35.52 35.52 0 0 1-6.33-.78 56.29 56.29 0 0 1-3.4-6.15 72.33 72.33 0 0 1-6.6-23.56c1.57.43 3.2.8 4.88 1.15a65.74 65.74 0 0 0 5.93 20.38 56.4 56.4 0 0 0 2.09 3.93 33.69 33.69 0 0 0 3.43 5.03ZM57.94 40c0 .4 0 .81-.03 1.22a69.2 69.2 0 0 1-4.72 1.25c.04-.82.07-1.63.07-2.47 0-10.8-3-20.56-6.4-27.68a56.34 56.34 0 0 0-2.1-3.93 33.67 33.67 0 0 0-3.42-5.03c2.15.07 4.27.35 6.33.78a56.29 56.29 0 0 1 3.21 5.78l.2.37A70.45 70.45 0 0 1 57.93 40ZM38.65 3.36c-.19.22-.38.44-.56.7a33.67 33.67 0 0 0-2.87 4.33 56.3 56.3 0 0 0-2.1 3.93A65.36 65.36 0 0 0 26.72 40c0 .84.04 1.65.07 2.47a69.22 69.22 0 0 1-4.71-1.25c-.03-.4-.03-.81-.03-1.22 0-11.6 3.24-22.1 6.86-29.7l.19-.38a56.29 56.29 0 0 1 3.21-5.78c2.06-.43 4.19-.71 6.34-.78Z" clip-rule="evenodd"></path><path fill="#191921" fill-rule="evenodd" d="M76.57 37.82a43.44 43.44 0 0 1-4.59 2.74c-.71.4-1.5.78-2.27 1.16a71.7 71.7 0 0 1-16.92 5.58 64.9 64.9 0 0 1-30.45-1.15 71.7 71.7 0 0 1-12.05-4.43c-.78-.38-1.56-.75-2.28-1.16a43.45 43.45 0 0 1-4.58-2.74c.06-1.78.3-3.53.65-5.25 1.12.88 2.56 1.84 4.28 2.84a51 51 0 0 0 3.96 2.1 65.23 65.23 0 0 0 9.77 3.7c1.53.48 3.09.88 4.7 1.26 4.13.87 8.59 1.43 13.2 1.43 4.63 0 9.09-.56 13.2-1.43 1.63-.38 3.2-.78 4.72-1.25a65.24 65.24 0 0 0 9.77-3.72c1.46-.68 2.78-1.4 3.96-2.09 1.72-1 3.15-1.96 4.28-2.84.34 1.72.59 3.47.65 5.25Z" clip-rule="evenodd"></path><path fill="#8d0218" fill-rule="evenodd" d="M40 8.01A31.99 31.99 0 1 0 40 72a31.99 31.99 0 0 0 0-63.98ZM3.33 40a36.66 36.66 0 1 1 73.33 0 36.66 36.66 0 0 1-73.33 0Z" clip-rule="evenodd"></path></svg> 