<?xml version="1.0" encoding="UTF-8"?> <svg xmlns="http://www.w3.org/2000/svg" fill="none" viewBox="0 0 80 80"><path fill="#97C0FF" fill-rule="evenodd" d="M26.66 30.83a5.83 5.83 0 0 0-5.83 5.84v6.66a5.83 5.83 0 0 0 5.83 5.84h5.08a5.83 5.83 0 0 0 5.42-3.67l1.2-3h6.6c.18.9.06 1.85-.36 2.7l-.17.35a2.5 2.5 0 1 0 4.47 2.24l.18-.36A9.17 9.17 0 0 0 50 42.5h4.95c.18.9.06 1.85-.36 2.7l-.17.35a2.5 2.5 0 1 0 4.47 2.24l.18-.36a9.17 9.17 0 0 0 0-8.2 3.14 3.14 0 0 0-2.81-1.73h-9.56a2.57 2.57 0 0 0-.1 0h-8.25l-1.2-3a5.83 5.83 0 0 0-5.42-3.67h-5.08Zm-.83 5.84c0-.46.37-.84.83-.84h5.08c.34 0 .65.21.77.53l1.34 3.33a.83.83 0 0 1 0 .62l-1.34 3.33a.83.83 0 0 1-.77.53h-5.08a.83.83 0 0 1-.83-.84v-6.66Z" clip-rule="evenodd"></path><path fill="#ffdf2c" fill-rule="evenodd" d="M40.95 3.44c-.64-.04-1.27-.04-1.9 0-2.45.12-4.7.83-7.2 2a122.76 122.76 0 0 0-8.88 4.84l-.2.11c-3.6 2.08-6.43 3.72-8.63 5.26-2.27 1.6-4 3.19-5.33 5.24-.35.54-.67 1.09-.95 1.65a19.02 19.02 0 0 0-1.88 7.24c-.24 2.68-.24 5.96-.24 10.1v.24c0 4.14 0 7.42.24 10.1.25 2.76.76 5.06 1.88 7.24.28.56.6 1.11.95 1.65a19.02 19.02 0 0 0 5.33 5.24c2.2 1.55 5.04 3.18 8.63 5.26l.2.11c3.6 2.08 6.43 3.72 8.87 4.85a19.02 19.02 0 0 0 7.2 2c.64.03 1.27.03 1.9 0 2.45-.13 4.7-.84 7.21-2 2.44-1.13 5.28-2.77 8.87-4.85l.2-.11c3.6-2.08 6.43-3.71 8.64-5.26 2.26-1.6 4-3.19 5.33-5.24.34-.54.66-1.09.95-1.65A19.02 19.02 0 0 0 74 50.22c.24-2.68.24-5.96.24-10.1v-.24c0-4.14 0-7.42-.24-10.1a19.02 19.02 0 0 0-1.87-7.24c-.3-.56-.6-1.11-.95-1.64a19.02 19.02 0 0 0-5.33-5.25c-2.2-1.54-5.04-3.18-8.63-5.26l-.2-.11c-3.6-2.08-6.44-3.71-8.88-4.85a19.02 19.02 0 0 0-7.2-2Zm-1.66 4.99c.47-.02.94-.02 1.4 0 1.59.08 3.18.53 5.36 1.54 2.21 1.03 4.86 2.55 8.57 4.7 3.72 2.14 6.36 3.67 8.36 5.07 1.96 1.38 3.15 2.54 4 3.87.26.39.5.8.7 1.21.73 1.4 1.14 3.02 1.35 5.4.22 2.44.22 5.5.22 9.78 0 4.29 0 7.34-.22 9.78-.21 2.38-.62 4-1.34 5.4-.22.41-.45.82-.7 1.21-.86 1.33-2.05 2.49-4 3.87-2 1.4-4.65 2.93-8.37 5.08a120.62 120.62 0 0 1-8.57 4.7c-2.18 1-3.77 1.45-5.35 1.53-.47.02-.94.02-1.4 0-1.58-.08-3.18-.53-5.35-1.54a120.64 120.64 0 0 1-8.58-4.7A120.66 120.66 0 0 1 17 60.27c-1.96-1.38-3.15-2.54-4-3.87-.26-.39-.5-.8-.7-1.21-.73-1.4-1.13-3.02-1.35-5.4-.22-2.44-.22-5.49-.22-9.78 0-4.29 0-7.34.22-9.78.22-2.38.62-4 1.34-5.4.22-.41.45-.82.7-1.21.86-1.33 2.05-2.49 4.01-3.87 2-1.4 4.64-2.93 8.36-5.07 3.71-2.15 6.36-3.67 8.58-4.7 2.17-1.01 3.77-1.46 5.34-1.54Z" clip-rule="evenodd"></path></svg> 