<?xml version="1.0" encoding="UTF-8"?> <svg xmlns="http://www.w3.org/2000/svg" fill="none" viewBox="0 0 80 80"><path fill="#ffdf2c" fill-rule="evenodd" d="M40.5 5a10.15 10.15 0 0 0-4.84 1.04c-1.16.53-2.49 1.3-4.06 2.2l-.1.06-.1.05c-1.57.9-2.9 1.67-3.95 2.4a10.08 10.08 0 0 0-3.32 3.65 10 10 0 0 0-1 3.81C23 19.5 23 21.01 23 22.82V23.05c0 1.8 0 3.33.11 4.6a10.01 10.01 0 0 0 1.52 4.69c.74 1.14 1.7 2 2.81 2.77 1.05.74 2.38 1.5 3.95 2.4l.1.06.1.06c1.57.9 2.9 1.66 4.07 2.2a10.15 10.15 0 0 0 4.83 1.04c1.38-.07 2.6-.47 3.83-1.04 1.16-.53 2.5-1.3 4.07-2.2l.1-.06.1-.06c1.57-.9 2.9-1.66 3.95-2.4a10.08 10.08 0 0 0 3.32-3.64c.62-1.22.89-2.47 1-3.82.12-1.27.12-2.8.12-4.6v-.22c0-1.82 0-3.34-.11-4.62a10 10 0 0 0-1.52-4.68c-.74-1.15-1.7-2-2.81-2.77-1.05-.74-2.38-1.5-3.96-2.4l-.1-.06-.1-.06c-1.57-.9-2.9-1.67-4.06-2.2A10.15 10.15 0 0 0 40.5 5Zm-.74 5.33h.48c.44.02.95.14 1.83.55.92.42 2.04 1.06 3.74 2.04 1.7.97 2.82 1.62 3.65 2.2a4.84 4.84 0 0 1 1.63 1.72c.2.39.36.9.44 1.85.1 1 .1 2.3.1 4.24 0 1.95 0 3.24-.1 4.25a4.81 4.81 0 0 1-.68 2.26c-.24.37-.6.76-1.39 1.3-.83.59-1.95 1.23-3.65 2.2A53.3 53.3 0 0 1 42.07 35a4.88 4.88 0 0 1-2.31.55 4.88 4.88 0 0 1-1.83-.55 53.3 53.3 0 0 1-3.74-2.04 53.23 53.23 0 0 1-3.65-2.2 4.84 4.84 0 0 1-1.64-1.72 4.8 4.8 0 0 1-.43-1.85c-.1-1-.1-2.3-.1-4.25 0-1.95 0-3.23.1-4.24a4.8 4.8 0 0 1 .67-2.26c.24-.37.6-.76 1.4-1.3.83-.59 1.95-1.24 3.65-2.21s2.82-1.62 3.74-2.04c.87-.4 1.39-.53 1.83-.55Zm19.4 28.78A10.15 10.15 0 0 1 64 40.15c1.17.53 2.5 1.3 4.07 2.2l.1.05.1.06c1.57.9 2.9 1.67 3.95 2.4a10.08 10.08 0 0 1 3.32 3.65c.63 1.21.89 2.46 1.01 3.81.12 1.27.12 2.8.12 4.6V57.16c0 1.81 0 3.34-.12 4.61a10.01 10.01 0 0 1-1.51 4.68c-.75 1.15-1.7 2-2.82 2.78-1.05.73-2.38 1.5-3.95 2.4l-.1.06-.1.05c-1.57.9-2.9 1.67-4.07 2.2a10.15 10.15 0 0 1-4.83 1.04 10.15 10.15 0 0 1-3.83-1.03c-1.16-.54-2.5-1.3-4.06-2.2l-.1-.06-.1-.06c-1.57-.9-2.9-1.67-3.95-2.4a10.08 10.08 0 0 1-3.32-3.65 10 10 0 0 1-1.01-3.81c-.12-1.27-.12-2.8-.12-4.6V56.92c0-1.8 0-3.34.12-4.6a10 10 0 0 1 1.51-4.7c.75-1.14 1.7-1.99 2.82-2.77 1.05-.73 2.38-1.5 3.95-2.4l.1-.06.1-.05c1.57-.9 2.9-1.67 4.06-2.2 1.24-.58 2.46-.98 3.83-1.04Zm.75 5.33h-.48c-.44.02-.95.14-1.83.54a53.3 53.3 0 0 0-3.74 2.05c-1.7.97-2.82 1.62-3.65 2.2a4.85 4.85 0 0 0-1.63 1.71c-.2.4-.35.9-.44 1.86-.09 1-.1 2.3-.1 4.24 0 1.95.01 3.24.1 4.24a4.8 4.8 0 0 0 .68 2.27c.24.37.6.75 1.4 1.3.82.58 1.94 1.23 3.64 2.2a53.3 53.3 0 0 0 3.74 2.05 4.88 4.88 0 0 0 2.31.54c.44-.02.96-.14 1.83-.54.93-.43 2.05-1.07 3.75-2.05 1.7-.97 2.81-1.62 3.65-2.2a4.84 4.84 0 0 0 1.63-1.71c.2-.4.35-.9.44-1.86.09-1 .09-2.29.09-4.24 0-1.95 0-3.24-.1-4.24a4.81 4.81 0 0 0-.67-2.27c-.24-.37-.6-.75-1.4-1.3a53.23 53.23 0 0 0-3.64-2.2 53.32 53.32 0 0 0-3.75-2.05c-.87-.4-1.39-.52-1.83-.54Z" clip-rule="evenodd"></path><path fill="#000" fill-rule="evenodd" d="M20.83 39.1a10.15 10.15 0 0 0-4.84 1.04c-1.16.54-2.5 1.3-4.06 2.2l-.1.06-.1.06c-1.57.9-2.9 1.67-3.95 2.4a10.08 10.08 0 0 0-3.32 3.65 10.01 10.01 0 0 0-1.01 3.81c-.12 1.27-.12 2.8-.12 4.6V57.16c0 1.81 0 3.34.12 4.61a10.01 10.01 0 0 0 1.51 4.68c.75 1.15 1.7 2 2.82 2.78 1.05.73 2.38 1.5 3.95 2.4l.1.06.1.05c1.57.9 2.9 1.67 4.06 2.2a10.15 10.15 0 0 0 4.84 1.04c1.37-.06 2.59-.46 3.82-1.03 1.17-.54 2.5-1.3 4.07-2.2l.1-.06.1-.06c1.57-.9 2.9-1.67 3.95-2.4a10.08 10.08 0 0 0 3.32-3.65 10 10 0 0 0 1.01-3.81c.12-1.27.12-2.8.12-4.6V56.92c0-1.8 0-3.34-.12-4.6a10.01 10.01 0 0 0-1.51-4.7c-.75-1.14-1.7-1.99-2.82-2.77-1.05-.73-2.38-1.5-3.95-2.4l-.1-.06-.1-.05c-1.57-.9-2.9-1.67-4.07-2.2a10.15 10.15 0 0 0-3.82-1.04Zm-.27 5.34h-.48c-.44.02-.95.14-1.83.54a53.3 53.3 0 0 0-3.74 2.05c-1.7.97-2.82 1.62-3.65 2.2a4.84 4.84 0 0 0-1.63 1.71c-.2.4-.35.9-.44 1.86-.09 1-.1 2.3-.1 4.24 0 1.95.01 3.24.1 4.24a4.81 4.81 0 0 0 .68 2.27c.24.37.6.75 1.4 1.3.82.58 1.94 1.23 3.64 2.2a53.3 53.3 0 0 0 3.74 2.05 4.88 4.88 0 0 0 2.31.54c.44-.02.96-.14 1.83-.54a53.3 53.3 0 0 0 3.75-2.05c1.7-.97 2.82-1.62 3.65-2.2a4.84 4.84 0 0 0 1.63-1.71c.2-.4.35-.9.44-1.86.09-1 .09-2.29.09-4.24 0-1.95 0-3.24-.1-4.24a4.8 4.8 0 0 0-.67-2.27c-.24-.37-.6-.75-1.4-1.3a53.23 53.23 0 0 0-3.64-2.2 53.3 53.3 0 0 0-3.75-2.05c-.87-.4-1.39-.52-1.83-.54Z" clip-rule="evenodd"></path></svg> 