<?xml version="1.0" encoding="UTF-8"?> <svg xmlns="http://www.w3.org/2000/svg" fill="none" viewBox="0 0 80 80"><path fill="#97C0FF" d="M42.5 23.33a2.5 2.5 0 0 0-5 0V35.4l-8.23-8.23a2.5 2.5 0 0 0-3.54 3.54l6.8 6.8h-9.2a2.5 2.5 0 0 0 0 5h10.63l-8.23 8.23a2.5 2.5 0 0 0 3.54 3.54l8.23-8.23v10.63a2.5 2.5 0 0 0 5 0v-9.2l6.8 6.8a2.5 2.5 0 1 0 3.54-3.54L44.6 42.5h12.06a2.5 2.5 0 0 0 0-5H46.04l6.8-6.8a2.5 2.5 0 0 0-3.54-3.54l-6.8 6.8V23.33Z"></path><path fill="#ffdf2c" fill-rule="evenodd" d="M54.88 7.91c-3.8-.41-8.6-.41-14.73-.41h-.3c-6.12 0-10.92 0-14.73.41-3.88.42-7.03 1.3-9.72 3.25a19.17 19.17 0 0 0-4.24 4.24c-1.95 2.69-2.83 5.84-3.25 9.72-.41 3.8-.41 8.6-.41 14.73v.3c0 6.12 0 10.92.41 14.73.42 3.88 1.3 7.03 3.25 9.72a19.17 19.17 0 0 0 4.24 4.24c2.69 1.95 5.84 2.83 9.72 3.25 3.8.41 8.6.41 14.73.41h.3c6.12 0 10.92 0 14.73-.41 3.88-.42 7.03-1.3 9.72-3.25a19.17 19.17 0 0 0 4.24-4.24c1.95-2.69 2.83-5.84 3.25-9.72.41-3.8.41-8.6.41-14.73v-.3c0-6.12 0-10.92-.41-14.73-.42-3.88-1.3-7.03-3.25-9.72a19.17 19.17 0 0 0-4.24-4.24c-2.69-1.95-5.84-2.83-9.72-3.25Zm-36.54 7.3c1.7-1.23 3.86-1.95 7.32-2.33 3.5-.38 8.03-.38 14.34-.38 6.3 0 10.83 0 14.34.38 3.46.38 5.63 1.1 7.32 2.33 1.2.87 2.26 1.93 3.13 3.13 1.23 1.7 1.95 3.86 2.33 7.32.38 3.5.38 8.03.38 14.34 0 6.3 0 10.83-.38 14.34-.38 3.46-1.1 5.63-2.33 7.32a14.17 14.17 0 0 1-3.13 3.13c-1.7 1.23-3.86 1.95-7.32 2.33-3.5.38-8.03.38-14.34.38-6.3 0-10.83 0-14.34-.38-3.46-.38-5.63-1.1-7.32-2.33a14.17 14.17 0 0 1-3.13-3.13c-1.23-1.7-1.95-3.86-2.33-7.32-.38-3.5-.38-8.03-.38-14.34 0-6.3 0-10.83.38-14.34.38-3.46 1.1-5.63 2.33-7.32.87-1.2 1.93-2.26 3.13-3.13Z" clip-rule="evenodd"></path></svg> 